<?xml version="1.0" encoding="utf-8"?>
<!-- Generator: Adobe Illustrator 28.2.0, SVG Export Plug-In . SVG Version: 6.00 Build 0)  -->
<svg version="1.1" xmlns="http://www.w3.org/2000/svg" xmlns:xlink="http://www.w3.org/1999/xlink" x="0px" y="0px"
	 viewBox="0 0 283 285" style="enable-background:new 0 0 283 285;" xml:space="preserve">
<style type="text/css">
	.st0{opacity:0.5;enable-background:new    ;}
	.st1{enable-background:new    ;}
	.st2{fill:#BE1E2D;}
	.st3{fill:#8A1E28;}
	.st4{fill:#FFCE59;}
	.st5{fill:#FFFFFF;}
</style>
<g id="Rectangle_1_copy_00000142865052001385988380000001604452178151014287_" class="st0">
	<g id="Rectangle_1_copy">
		<g>
			<path d="M263,0.02V9c0,2.76-2.24,5-5,5h-15c-2.76,0-5-2.24-5-5V0.02h-89.96h-3.05H55V9c0,2.76-2.24,5-5,5H35c-2.76,0-5-2.24-5-5
				V0.02H9.98v179.51h24.49v-8.8h6.68l3.91,7.41c5.78,11.55,14.79,10.52,28.71,10.57l0.01,0.01c0,0,0.83,22.1,6.22,27.28
				c5.07,4.87,10,8,10,8s0.29,7.12,6.14,13.1c5.86,5.98,7.36,6,7.36,6c0,9.42,6.02,17.44,14.45,20.57l4.85,3.46
				c2.77,7.9,9.24,14.06,17.35,16.53c1.42,0.62,3.06,1.04,4.83,1.23V285c0.11,0,0.21-0.01,0.32-0.02V285l0.02-0.02
				c0.14,0,0.27-0.02,0.41-0.02c0.41,0.03,0.83,0.04,1.25,0.04c3.18,0,6.07-0.78,8.22-2.04c7-2.87,12.49-8.59,14.99-15.71l4.85-3.46
				c8.43-3.13,14.45-11.15,14.45-20.58c0,0,1.5-0.02,7.36-6s6.14-13.1,6.14-13.1s4.93-3.13,10-8c5.39-5.18,6.21-27.29,6.21-27.29
				l0.01-0.01c13.92-0.05,22.92,0.98,28.7-10.57l3.91-7.42h6.68v8.8h24.48V0.02H263z"/>
		</g>
	</g>
</g>
<g id="Rectangle_1_copy_2_00000181799540739834707150000010679518827718280590_" class="st1">
	<g id="Rectangle_1_copy_2">
		<g>
			<path class="st2" d="M253,0.02V9c0,2.76-2.24,5-5,5h-15c-2.76,0-5-2.24-5-5V0.02h-89.96h-3.05H45V9c0,2.76-2.24,5-5,5H25
				c-2.76,0-5-2.24-5-5V0.02H-0.02v169.51h24.49v-8.8h6.68l3.91,7.41c5.78,11.55,14.79,10.52,28.71,10.57l0.01,0.01
				c0,0,0.83,22.1,6.22,27.28c5.07,4.87,10,8,10,8s0.29,7.12,6.14,13.1c5.86,5.98,7.36,6,7.36,6c0,9.42,6.02,17.44,14.45,20.57
				l4.85,3.46c2.77,7.9,9.24,14.06,17.35,16.53c1.42,0.62,3.06,1.04,4.83,1.23V275c0.11,0,0.21-0.01,0.32-0.02V275l0.02-0.02
				c0.14,0,0.27-0.02,0.41-0.02c0.41,0.03,0.83,0.04,1.25,0.04c3.18,0,6.07-0.78,8.22-2.04c7-2.87,12.49-8.59,14.99-15.71l4.85-3.46
				c8.43-3.13,14.45-11.15,14.45-20.58c0,0,1.5-0.02,7.36-6c5.86-5.98,6.14-13.1,6.14-13.1s4.93-3.13,10-8
				c5.39-5.18,6.21-27.29,6.21-27.29l0.01-0.01c13.92-0.05,22.92,0.98,28.7-10.57l3.91-7.42h6.68v8.8h24.48V0.02H253z"/>
		</g>
	</g>
</g>
<g id="Rectangle_1_copy_8_00000135656469948858767980000002773296518821202596_" class="st1">
	<g id="Rectangle_1_copy_8">
		<g>
			<path class="st3" d="M228,9V6h0V0H45v9c0,2.76-2.24,5-5,5H30v71l0.08,0.15c11.45,2.66,26.89,16.79,38.94,36.92
				c13.72,22.91,18.53,46.02,12.42,55.94H87l1.94,12.58c12.42,4.63,25.24,14.88,26.01,25.43c0.02,0,0.03,0,0.05,0
				c7.09,0,8.24,6.75,8.24,13.84c0,3.65-1.53,6.94-3.98,9.28l17.79,7.88l16.71-7.77c-2.45-2.34-3.98-5.63-3.98-9.28
				c0-7.09,1.15-13.85,8.24-13.85c0.02,0,0.03,0,0.05,0c0.77-10.55,13.59-20.8,26-25.44l1.93-12.58h5.56
				c-6.11-9.92-1.3-33.04,12.41-55.96c12.05-20.13,27.47-34.27,38.92-36.93l0.08-0.15V14H233C230.24,14,228,11.76,228,9z M1,6h19V0
				H1V6z M253,0v6h19V0H253z"/>
		</g>
	</g>
</g>
<g id="Rectangle_1_copy_10_00000001647880303696405370000012571691073006742680_" class="st1">
	<g id="Rectangle_1_copy_10">
		<g>
			<path class="st4" d="M23,16h7v69l0.08,0.15c11.45,2.66,26.89,16.79,38.94,36.92c13.72,22.91,18.53,46.02,12.42,55.94H87
				l1.94,12.58c12.42,4.63,25.24,14.88,26.01,25.43c0.02,0,0.03,0,0.05,0c7.09,0,8.24,6.75,8.24,13.84c0,3.65-1.53,6.94-3.98,9.28
				l17.79,7.88l16.71-7.77c-2.45-2.34-3.98-5.63-3.98-9.28c0-7.09,1.15-13.85,8.24-13.85c0.02,0,0.03,0,0.05,0
				c0.77-10.55,13.59-20.8,26-25.44l1.93-12.58h5.56c-6.11-9.92-1.3-33.04,12.41-55.96c12.05-20.13,27.47-34.27,38.92-36.93
				l0.08-0.15V16H250c2.76,0,5-2.24,5-5V0.02h-2V9c0,2.76-2.24,5-5,5h-7.02v68.04l-0.08,0.15c-11.45,2.66-26.88,19.8-38.92,39.93
				c-13.71,22.92-19.52,44.04-13.41,53.96h-4.56l-1.93,12.58c-12.41,4.64-25.23,14.89-26,25.44c-0.02,0-0.03,0-0.05,0
				c-7.09,0-8.24,6.75-8.24,13.85c0,3.65,0.53,7.94,2.98,10.28L137.05,245l-14.79-6.88c2.45-2.34,2.98-6.63,2.98-10.28
				c0-7.09-1.15-13.84-8.24-13.84c-0.02,0-0.03,0-0.05,0c-0.77-10.55-13.6-20.79-26.01-25.43L89,176h-4.56
				c6.11-9.91,0.3-31.03-13.42-53.94c-12.05-20.12-27.49-37.25-38.94-39.92L32,82V14h-7c-2.76,0-5-2.24-5-5V0.02h-2V11
				C18,13.76,20.24,16,23,16z M19.47,155.73h14.68l4.91,7.41c5.78,11.55,16.79,9.52,30.71,9.57l0.01,0.01c0,0,1.23,26.4,5.22,30.28
				c3.99,3.88,10,7,10,7s1.1,8.84,6,13c4.9,4.16,7.5,5.1,7.5,5.1c0,9.42,4.02,17.44,12.45,20.57l4.85,3.46
				c3.3,9.39,9.29,15.83,19.19,16.87h4c9.89-1.05,14.91-7.36,18.21-16.76l4.85-3.46c8.43-3.13,12.45-11.15,12.45-20.58
				c0,0,2.6-0.93,7.5-5.1c4.9-4.17,6-13.01,6-13.01s6.01-3.12,10-7c3.99-3.88,6.21-30.29,6.21-30.29l0.01-0.01
				c13.92-0.05,23.92,1.98,29.7-9.57l4.91-7.42h14.67v8.8h14.49V0.02h-2V162.6H255.5v-8.8h-18.67l-4.91,7.42
				c-5.78,11.56-15.78,9.53-29.7,9.57l-0.01,0.01c0,0-2.23,26.41-6.21,30.29c-3.99,3.88-10,7-10,7s-1.1,8.84-6,13.01
				c-4.9,4.17-7.5,5.1-7.5,5.1c0,9.43-4.01,17.45-12.45,20.58l-4.85,3.46c-2.95,8.4-8.09,14.85-16.21,16.76c-0.95,0.13-2.77,0.2-4,0
				c-8.73-1.65-14.11-8.13-17.19-16.87l-4.85-3.46c-8.44-3.13-12.45-11.14-12.45-20.57c0,0-2.6-0.93-7.5-5.1c-4.9-4.16-6-13-6-13
				s-6.01-3.12-10-7c-3.99-3.88-5.22-30.28-5.22-30.28l-0.01-0.01c-13.92-0.05-24.93,1.98-30.71-9.57l-4.91-7.41H17.47v8.8H6.98
				V0.02h-2v164.51h14.49V155.73z M270.99,0.02v167.58h-20.48v-8.8h-10.68l-3.91,7.42c-5.78,11.56-15.78,9.53-29.7,9.57l-0.01,1.01
				c0,0,0.17,22.11-5.21,27.29c-5.07,4.87-10,8-10,8s-0.29,7.12-6.14,13.1c-5.86,5.98-7.36,6-7.36,6c0,9.43-6.01,17.45-14.45,20.58
				l-4.85,3.46c-2.98,8.51-10.24,15.02-19.23,17.06c-1.92,0.35-2.4,0.37-4.01,0.07c-9.42-1.79-17.07-8.45-20.16-17.24l-4.85-3.46
				c-8.44-3.13-14.45-11.14-14.45-20.57c0,0-1.5-0.02-7.36-6C82.29,219.12,82,212,82,212s-4.93-3.13-10-8
				c-5.39-5.17-5.22-28.28-5.22-28.28l-0.01-0.01c-13.92-0.05-23.93,1.98-29.71-9.57l-3.91-7.41H22.47v8.8H1.98V0.02h-2v169.51
				h24.49v-8.8h6.68l3.91,7.41c5.78,11.55,14.79,10.52,28.71,10.57l0.01,0.01c0,0,0.83,22.1,6.22,27.28c5.07,4.87,10,8,10,8
				s0.29,7.12,6.14,13.1c5.86,5.98,7.36,6,7.36,6c0,9.42,6.02,17.44,14.45,20.57l4.85,3.46c3.31,9.41,11.84,16.69,21.19,17.87
				c1-0.02,6,0,6,0c10.33-1.16,16.9-8.34,20.21-17.76l4.85-3.46c8.43-3.13,14.45-11.15,14.45-20.58c0,0,1.5-0.02,7.36-6
				c5.86-5.98,6.14-13.1,6.14-13.1s4.93-3.13,10-8c5.39-5.18,6.21-27.29,6.21-27.29l0.01-0.01c13.92-0.05,22.92,0.98,28.7-10.57
				l3.91-7.42h6.68v8.8h24.48V0.02H270.99z"/>
		</g>
	</g>
</g>
<g id="Ellipse_2_00000104680516758676337780000016744107314611934397_" class="st1">
	<g id="Ellipse_2">
		<g>
			<path class="st4" d="M20.54,136.6c-1.74,0.95-3.78,2.18-6.03,2.52c-2.93,0.44-3.75-0.02-4.62,0.46
				c-1.53,0.85-1.34,2.57-0.92,3.75C9.77,145.56,19.99,142.87,20.54,136.6z M27.59,30.9c-3.25,6.28-4.12,13.66-1.65,17.15
				c-0.08,0.09-0.15,0.18-0.23,0.27c-4.17-3.06-1.33-6.42-2.36-9.84c-1.24-1.38-2.72,5.59-3.94,4.21c0.14-1.33-3.59-4.96-3.59-4.96
				s-0.29-1.2-2.13-0.12C9.37,40.16,18.27,50.51,16,54c-3.28-1.47-0.86,7.26-3.98,9.2c0.08,0.41,0.74,1.3,0.74,1.3
				s-2.59,4.54,6.6,9.02c1.3,0.11,1.68-0.27,2.9-0.62c0.44-3.6-9.13-11.03-2.57-11.47c9.39-0.62-11.89-17.65,11.59-7.68
				c10.95,4.65,22.76,4.55,33.52-0.4c3.89-1.79,9.07-5.36,11.28-7.28c2.19-1.91,10.25-10.68,11.04-11.78
				c0.79-1.1,3.35-8.78-5.83-12.14c-5.16-1.88-12.39-0.5-16.7-2.25c-1.34-0.55-1.65-1.17-2.37-2.49c-6.34,0.19-5.4,7.27-3.15,8.95
				c2.28,1.71,4.2,0.17,6.32,0.26c-3.27,4.36-1.33,8.38,4.19,10.99c3.25,0.3,5.6,0.07,8.12-2.7c0.09-3.22-1.33-6.31-3.84-7.4
				c-2.48-1.07-6.08,0.29-6.08,0.29s0.55-1.44,1.72-2.75c1.16-1.31,4.32-1.93,7.86-1.57c8.93,4.27,3.65,16.33-5.68,17.14
				c-12.2,1.05-10.2-7.92-10.2-7.92s-0.93-0.23-1.39-0.34c-1.64-0.14-2.31,0.09-3.72,1.05c-4.52,2.63-2.33,5.86-1.83,8.19
				c-1.4,0.75-3.37,1.96-3.83,3.81c0.01,0.54,0.01,1.08,0.02,1.62c1.7,0.18,3.1-0.44,4.6,0.18c1.96,0.8,4.07,3.01,6.65,4.56
				c-5.67,4.85-12.1,1.86-17.02-3.3c0.59-2.67,8.05-9.83,0.02-12.2c-7.93-2.34-10.69,7.62-10.83,12.72
				c-2.94-2.09-3.95-2.72-3.29-6.82c0.64-4.01,8.38-11,8.67-13.21c-0.11-0.86-0.5-1.01-1.71-1.67c-2.06-0.14-3.47,0.64-5.51,0.5
				c0.49-0.59,1.76-1.53,4.01-2.84c2.26-1.31,10.3-3.69,13.7,3.71c2.44-4.43-3.91-8.75-9.05-8.34c-5.73,0.46-10.31,4.92-13.17,10.26
				c-0.06,0.39-0.1,0.63-0.1,0.63S27.64,31.07,27.59,30.9z M10.74,147.65c-0.72,1.35-0.41,2.55,2.19,3.41
				c5.45,1.79,9.75-10.23,9.75-10.23s-1.51,1.52-5.28,3.38C15.24,145.27,11.45,146.3,10.74,147.65z M191.31,139.31
				c1.17-0.87,1.88-3.55,1.88-4.06c-0.75-0.75-1.5-1.5-2.24-2.25c-0.21,0.11-0.43,0.21-0.64,0.32c-0.84,2.62-4.12,1.65-6.45,3.14
				c-1.17,0.75-0.58,2.57-1.6,3.54c-1.02,0.97-4-1.79-4.17,2.25c-1.52,6.57,5.13,13.36-5.13,22.5c2.32-6.37,6.96-13.72,2.24-21.54
				c-7.19-11.91-20.87-9.95-24.69,3.86c-0.11,0-0.21,0-0.32,0c-0.67-2.33-1.91-3.42-4.81-3.54c-11.43,8.37,7.63,27.74,5.45,39.54
				c-2.08,11.26-9.07,17.05-13.83,25.59c0.08,0.14,0.07,0.17,0.04,0.17c0.03,0.01,0.03,0.04-0.04,0.17
				c-0.07-0.13-0.06-0.16-0.04-0.17c-0.03,0-0.04-0.03,0.04-0.17c-4.77-8.54-11.77-14.33-13.85-25.59
				c-2.19-11.8,16.91-31.16,5.46-39.54c-2.9,0.11-4.15,1.2-4.82,3.54c-0.11,0-0.21,0-0.32,0c-3.82-13.8-17.53-15.77-24.73-3.86
				c-4.73,7.82-0.08,15.16,2.25,21.54c-10.27-9.14-3.61-15.93-5.14-22.5c-0.17-4.04-3.16-1.28-4.18-2.25
				c-1.02-0.97-0.43-2.78-1.61-3.54c-2.33-1.5-5.62-0.52-6.46-3.14c-0.21-0.11-0.43-0.21-0.64-0.32c-0.75,0.75-1.5,1.5-2.25,2.25
				c0,0.51,0.71,3.18,1.88,4.06c1.18,0.88,2.29,1.97,3.29,3.26c7.67,9.88,12.1,35.69,33.73,27.64c-1.84,4.47-6.63,5.35-5.78,11.89
				c1.28,0,2.57,0,3.85,0c0,0.11,0,0.21,0,0.32c-3.01,2.94-3.95,5.21-3.21,11.25c0.96-0.54,1.93-1.07,2.89-1.61
				c-3.63,11.06,1.93,13.82,1.93,13.82s2.14-1.71,3.21-2.57c-2.04,5.66,1.79,8.47,2.57,12.86c0.32,0.21,0.64,0.43,0.96,0.64
				c1.44-0.53,1.32-1.02,2.25-1.93c0.82,6.42,3.13,10.94,7.25,14.09c1.77,1.36,1.16,1.35,2.91,0.01c4.12-3.15,6.43-7.68,7.26-14.1
				c0.92,0.9,0.8,1.4,2.24,1.93c0.32-0.21,0.64-0.43,0.96-0.64c0.77-4.39,4.6-7.19,2.57-12.86c1.07,0.86,3.21,2.57,3.21,2.57
				s5.55-2.76,1.92-13.82c0.96,0.54,1.92,1.07,2.89,1.61c0.73-6.04-0.2-8.31-3.21-11.25c0-0.11,0-0.21,0-0.32c1.28,0,2.57,0,3.85,0
				c0.85-6.54-3.94-7.43-5.77-11.89c21.59,8.05,26.01-17.76,33.67-27.64C189.03,141.28,190.14,140.18,191.31,139.31z M100.66,159.29
				c0-0.32,0-0.64,0-0.96c3.97,0.21,7.5-2.39,5.14-6.11c-0.7-1.52-1.5-2.05-3.53-2.25c-2.86,0.9-3.19,1.16-3.85,3.54
				c-4.21-7.06,5.57-14.77,10.6-16.39c19.46,0.35,11.36,25.45,2.89,18c-0.94-0.53-0.85,0.22-1.28-1.93
				c-0.44-2.14-0.22-1.97,0.96-2.89c1.18-0.92,2.42,0.86,3.85,1.61c0.21-0.11,0.43-0.21,0.64-0.32c2.54-8.66-6.01-16.53-9.64-9.96
				c-2.66,4.8-0.54,7.32,1.93,10.29c0.91,1.09,1.72,3.83,2.57,4.5c-0.6,3.26-2.42,3.91-2.57,7.71c4.18,5.01,7.43,4.58,12.21,0.64
				c0.11-0.32,0.21-0.64,0.32-0.96c-4.3,0.1-5.87-1.54-7.07-4.5c0-0.43,0-0.86,0-1.29c5.49-1.02,9.26-3.3,9.31-9.64
				c1.47,0.47,1.54,0.81,2.25,1.93c2.19-0.13,2.85-0.66,3.53-2.25c0.11,0,0.21,0,0.32,0c3.34,3.38,0.35,10.22-1.61,13.18
				C120.8,171.55,105.11,172.67,100.66,159.29z M146.34,161.21c-1.96-2.96-4.93-9.8-1.6-13.18c0.11,0,0.21,0,0.32,0
				c0.68,1.59,1.34,2.12,3.53,2.25c0.71-1.12,0.78-1.46,2.24-1.93c0.05,6.34,3.82,8.62,9.3,9.64c0,0.43,0,0.86,0,1.29
				c-1.19,2.96-2.76,4.6-7.05,4.5c0.11,0.32,0.21,0.64,0.32,0.96c4.77,3.94,8.01,4.37,12.18-0.64c-0.15-3.81-1.97-4.46-2.57-7.71
				c0.84-0.67,1.66-3.41,2.57-4.5c2.47-2.97,4.58-5.48,1.92-10.29c-3.62-6.57-12.16,1.3-9.62,9.96c0.21,0.11,0.43,0.21,0.64,0.32
				c1.43-0.75,2.67-2.53,3.85-1.61c1.18,0.92,1.4,0.75,0.96,2.89c-0.44,2.14-0.35,1.4-1.28,1.93c-8.46,7.45-16.54-17.65,2.89-18
				c5.02,1.62,14.79,9.33,10.58,16.39c-0.66-2.38-0.99-2.64-3.85-3.54c-2.03,0.2-2.83,0.73-3.53,2.25
				c-2.36,3.72,1.17,6.32,5.13,6.11c0,0.32,0,0.64,0,0.96C168.84,172.67,153.17,171.55,146.34,161.21z M136.24,205.58
				c0.11,0.52,0.26,1.05,0.48,1.6c0.09-0.05,0.19-0.09,0.28-0.14c-0.12-0.06-0.24-0.12-0.36-0.18
				C136.52,206.42,136.38,206,136.24,205.58z M27.59,30.9c0.06-0.12,0.13-0.23,0.19-0.35c0.37-2.54,1.44-12.09-3.43-13.1
				c-2.68-0.56-3.55,0.33-3.6,1.86c-0.05,1.53,2.71,4.31,4.05,6.31C26.65,28.39,27.37,30.25,27.59,30.9z M77,159
				c-0.13-1.35-2.73-12.99-3.67-15.74c-0.95-2.76-3.66-8.46-6.14-11.96c-6.86-9.68-19.67-17.03-31.48-18.63
				c-13.84-1.87-8.97-6.4-14.42-10.26c-5.38-3.81-2.76-7.22-1.34-10.56c-0.88-0.92-1.02-1.44-2.2-1.99
				c-10.22-0.72-5.68,10.62-5.68,10.62s-1.01,0.44-1.29,0.76c1.73,3.24,4.7,6.03,8.28,6.39c0.22,4.16-5.21,6.98-2.73,11.35
				c1.05,1.86,1.9,0.96,1.9,0.96s1.08-2.42,1.63-3.64c1.75-0.58-0.46,6.2,1.31,5.63c2.6-2.45,1.82-6.78,6.97-7.35
				c0.02,0.12,0.04,0.23,0.06,0.35c-7.29,3.35-11.27,24.43-0.89,31.58c4.26,2.93,11.93,2.36,12.03-2.7
				c-6.65,4.71-12.44-1.38-13.74-3.64c-1.31-2.26-1.93-3.71-2.06-4.47c1.84,0.9,2.67,2.28,4.53,3.19c1.38,0.03,1.79,0.1,2.32-0.59
				c0.85-2.06-2.36-11.99-0.9-15.79c1.49-3.89,2.68-3.92,6.27-4.26c-2.43,4.49-5.02,14.51,3.03,16.45
				c8.15,1.97,5.27-7.98,6.09-10.59c6.85-2.01,16.53,0.11,19.02,7.16c-3.01,0.05-5.95,0.91-8.05,0.62
				c-1.61-0.22-2.51-1.46-4.08-2.15c-0.28,0.47-0.55,0.93-0.82,1.39c-0.53,1.83,0.57,3.87,1.41,5.22c-1.6,1.77-5.12,3.48-2.51,8.02
				c0.74,1.54,1.21,2.08,2.7,2.77c0.46,0.13,1.38,0.4,1.38,0.4s2.76-8.78,12.81-1.77c7.7,5.37,6.24,18.47-3.65,17.7
				c-3.25-1.47-5.68-3.59-6.03-5.3c-0.35-1.72-0.11-3.24-0.11-3.24s2.44,2.98,5.13,3.29c2.72,0.32,5.51-1.65,7.04-4.49
				c-0.8-3.66-2.72-5.04-5.69-6.4c-6.1-0.51-9.79,2.01-9.14,7.43c-1.88-0.98-2.77-3.28-5.61-2.94c-2.79,0.33-7.14,6-1.75,9.34
				c1.28-0.78,1.87-1.17,3.31-0.97c4.61,0.64,10.19,5.46,15.61,6.41C75.51,168.29,77.13,160.35,77,159z M137,251
				c0.31,0,0.6-0.07,0.86-0.2c0.05,0.13,0.1,0.24,0.14,0.37c0-0.15,0-0.3,0-0.45c0.6-0.35,1-0.98,1-1.72c0-1.1-0.9-2-2-2s-2,0.9-2,2
				c0,0.74,0.4,1.38,1,1.72c0,0.15,0,0.29,0,0.44c0.04-0.13,0.1-0.24,0.14-0.37C136.4,250.92,136.69,251,137,251z M250.19,25.62
				c1.33-2,4.09-4.78,4.04-6.31c-0.05-1.53-0.92-2.41-3.6-1.86c-5.26,1.1-3.58,12.2-3.34,13.59c0.01,0.03,0.03,0.06,0.04,0.09
				C247.42,30.84,248.04,28.85,250.19,25.62z M187.79,34.28c0.79,1.1,8.83,9.88,11.02,11.78c2.2,1.92,7.38,5.49,11.26,7.28
				c10.74,4.95,22.53,5.05,33.46,0.4c23.44-9.97,2.2,7.06,11.57,7.68c6.56,0.44-3,7.87-2.56,11.47c1.22,0.36,1.6,0.73,2.89,0.62
				c9.18-4.48,6.59-9.02,6.59-9.02s0.65-0.89,0.73-1.3c-3.11-1.94-0.69-10.67-3.97-9.2c-2.27-3.49,6.62-13.84,2.31-16.38
				c-1.84-1.08-2.12,0.12-2.12,0.12s-3.72,3.63-3.59,4.96c-1.22,1.38-2.7-5.6-3.94-4.21c-1.03,3.42,1.81,6.78-2.35,9.84
				c-0.07-0.09-0.15-0.18-0.22-0.27c2.44-3.45,1.62-10.7-1.53-16.93c-0.01,0.02-0.02,0.06-0.02,0.06s-0.01-0.05-0.02-0.14
				c-2.83-5.55-7.51-10.27-13.41-10.75c-5.14-0.41-11.47,3.91-9.04,8.34c3.39-7.4,11.42-5.01,13.68-3.71
				c2.25,1.31,3.51,2.25,4.01,2.84c-2.03,0.14-3.45-0.64-5.5-0.5c-1.21,0.66-1.6,0.81-1.71,1.67c0.29,2.21,8.01,9.19,8.65,13.21
				c0.65,4.1-0.36,4.73-3.29,6.82c-0.14-5.09-2.9-15.05-10.82-12.72c-8.02,2.37-0.57,9.53,0.02,12.2
				c-4.91,5.16-11.33,8.15-16.99,3.3c2.57-1.54,4.68-3.76,6.64-4.56c1.5-0.61,2.9,0.01,4.59-0.18c0.01-0.54,0.01-1.08,0.02-1.62
				c-0.46-1.85-2.42-3.06-3.82-3.81c0.5-2.33,2.69-5.57-1.83-8.19c-1.41-0.96-2.08-1.19-3.71-1.05c-0.46,0.11-1.39,0.34-1.39,0.34
				s2,8.98-10.18,7.92c-9.32-0.81-14.59-12.87-5.67-17.14c3.54-0.36,6.69,0.27,7.85,1.57c1.16,1.31,1.71,2.75,1.71,2.75
				s-3.59-1.36-6.06-0.29c-2.51,1.09-3.93,4.18-3.84,7.4c2.51,2.77,4.86,3,8.11,2.7c5.51-2.6,7.45-6.63,4.18-10.99
				c2.11-0.09,4.03,1.45,6.3-0.26c2.24-1.68,3.18-8.75-3.15-8.95c-0.72,1.32-1.03,1.95-2.37,2.49c-4.3,1.75-11.52,0.36-16.67,2.25
				C184.44,25.5,187,33.18,187.79,34.28z M69.07,3.93c2.17-0.89,4.53-2.3,6.54-3.93h-3.48c-0.33,0.39-0.69,0.72-1.07,0.93
				C68.41,2.4,67.64,1.28,67.4,0h-1.39C65.09,2.43,64.74,5.71,69.07,3.93z M119.54,230.95c0.06-1.46-0.34-1.9-0.75-3.28
				c-3.61-0.62-7.85-0.14-8.65-7.4c-0.79-7.22-6.61-6.07-4.15-10.27c2.47-4.2-5.03-10.55-11-13c-5.97-2.45-3.07,4.69-2,6
				c0.73,0.9-1.11-5.82,4-3c1.72,0.95,3.1,4.27,3,5c-0.3,2.16-5.16,0.38-7,0c-3.86-0.79-6.61-12.35-8.69-12.71
				c-0.82,0.09-0.96,0.48-1.6,1.69c-0.16,2.09,1.45,2.93,1.3,5.02c-0.55-0.53-1.79-2.65-3-5c-1.2-2.33-3.82-9.02,3.15-12.17
				c-4.09-2.5-7.42,2.02-7.15,7.17c0.67,12.88,19.35,22.58,25.66,17.87c0.09,0.08,0.18,0.16,0.27,0.25
				c-2.92,4.33-6.22,1.2-9.53,2.18c-1.34,1.28,5.46,3.08,4.13,4.35c-1.3-0.19-3.87-0.56-3.87-0.56s-1.17,0.27-0.11,2.28
				c2.52,4.78,7.56,1.38,11.03,3.96c-1.4,3.55-0.4,7.97,1.6,11.53c0.41-0.08,1.28-0.78,1.28-0.78S115.36,241.3,119.54,230.95z
				 M208.91,0h-1.39c-0.23,1.28-1,2.4-3.66,0.93c-0.38-0.21-0.74-0.54-1.07-0.93h-3.47c2.01,1.63,4.37,3.04,6.53,3.93
				C210.18,5.71,209.83,2.43,208.91,0z M263.18,140.12c-0.89-0.49-1.74-0.03-4.76-0.47c-2.31-0.34-4.4-1.59-6.18-2.55
				c0,0.02-0.01,0.04-0.01,0.06c0.65,6.33,11.09,9.03,11.9,6.78C264.57,142.74,264.76,140.99,263.18,140.12z M260.05,151.8
				c2.68-0.87,3-2.1,2.26-3.47s-4.64-2.42-6.86-3.5c-2.63-1.28-4.18-2.39-4.91-2.98c-0.07,0.13-0.13,0.26-0.2,0.38
				C251.45,144.93,255.32,153.34,260.05,151.8z M138,251.9c-0.3-0.56-0.63-0.9-1-0.9c-0.37,0-0.7,0.34-1,0.9c0-0.25,0-0.49,0-0.74
				c-1.38,3.97-1.81,9.62-0.89,10.98c0.29,0.42,0.59,0.74,0.89,0.99c0-0.01,0-0.02,0-0.04c0.01,0.02,0.02,0.04,0.03,0.06
				c-0.01-0.01-0.02-0.02-0.03-0.03c0,0.54,0,0.87,0,0.87s0.26,0,0.65-0.12c0.12,0.07,0.23,0.12,0.35,0.12
				c0.12,0,0.24-0.05,0.35-0.12C137.74,264,138,264,138,264s0-0.33,0-0.87c-0.01,0.01-0.02,0.01-0.03,0.02
				c0.01-0.02,0.02-0.04,0.03-0.05c0,0.01,0,0.02,0,0.03c0.3-0.25,0.6-0.57,0.88-0.99c0.92-1.36,0.49-7-0.88-10.97
				C138,251.41,138,251.66,138,251.9z M138.34,243.99c1.15-0.86,2.28-1.77,2.34-2.65c0.2-2.88-3.68-3.34-3.68-3.34
				s-3.88,0.61-3.69,3.34c0.05,0.73,1.28,1.85,2.31,2.66C137.41,245.42,136.6,245.29,138.34,243.99z M252.24,137.11
				c1.9-8.85-1.56-19.83-6.65-22.17c0.02-0.12,0.04-0.23,0.06-0.35c5.14,0.56,4.36,4.9,6.96,7.35c1.77,0.58-0.44-6.21,1.31-5.63
				c0.55,1.22,1.63,3.64,1.63,3.64s0.85,0.89,1.9-0.96c2.47-4.37-2.95-7.19-2.72-11.35c3.58-0.36,6.54-3.15,8.27-6.39
				c-0.28-0.31-1.29-0.76-1.29-0.76s4.53-11.34-5.67-10.62c-1.18,0.55-1.32,1.07-2.2,1.99c1.42,3.34,4.03,6.75-1.34,10.56
				c-5.44,3.86-0.58,8.39-14.4,10.26c-11.79,1.59-24.58,8.95-31.42,18.63c-2.47,3.5-5.18,9.19-6.13,11.96
				c-0.95,2.75-3.53,14.39-3.67,15.74c-0.13,1.35,1.49,9.29,11.12,7.61c5.41-0.95,10.98-5.77,15.59-6.41
				c1.43-0.2,2.02,0.19,3.3,0.97c5.39-3.34,1.04-9-1.74-9.34c-2.83-0.34-3.72,1.95-5.6,2.94c0.65-5.42-3.04-7.93-9.12-7.43
				c-2.96,1.37-4.89,2.75-5.68,6.4c1.53,2.84,4.31,4.81,7.03,4.49c2.68-0.31,5.12-3.29,5.12-3.29s0.24,1.52-0.11,3.24
				c-0.35,1.71-2.77,3.83-6.02,5.3c-9.87,0.77-11.33-12.33-3.65-17.7c10.04-7.02,12.79,1.77,12.79,1.77s0.92-0.27,1.38-0.4
				c1.49-0.7,1.95-1.23,2.7-2.77c2.6-4.54-0.91-6.25-2.51-8.02c0.84-1.35,1.94-3.39,1.41-5.22c-0.27-0.46-0.55-0.93-0.82-1.39
				c-1.56,0.69-2.46,1.93-4.07,2.15c-2.1,0.29-5.03-0.57-8.04-0.62c2.48-7.05,12.14-9.17,18.98-7.16
				c0.82,2.61-2.06,12.55,6.08,10.59c8.03-1.94,5.45-11.96,3.03-16.45c3.59,0.34,4.78,0.38,6.26,4.26c1.45,3.8-1.75,13.73-0.9,15.79
				c0.53,0.69,0.94,0.62,2.32,0.59c1.85-0.91,2.69-2.29,4.52-3.19c-0.14,0.75-0.75,2.21-2.06,4.47c-1.3,2.26-7.08,8.35-13.72,3.64
				c0.1,5.06,7.76,5.63,12.01,2.7c1.63-1.12,2.9-2.59,3.86-4.28c-0.21-0.51-0.33-0.83-0.33-0.83s0.18,0.17,0.53,0.45
				c0.77-1.44,1.32-3.02,1.68-4.68c0-0.03-0.01-0.05-0.01-0.08C252.22,137.1,252.23,137.1,252.24,137.11z M189.76,181.83
				c6.95,3.15,4.34,9.83,3.14,12.17c-1.21,2.35-2.44,4.47-2.99,5c-0.16-2.09,1.45-2.93,1.29-5.02c-0.64-1.21-0.79-1.6-1.6-1.69
				c-2.08,0.36-4.82,11.92-8.68,12.71c-1.84,0.38-6.68,2.16-6.99,0c-0.1-0.73,1.28-4.05,2.99-5c5.11-2.82,3.27,3.9,3.99,3
				c1.07-1.31,3.96-8.45-2-6c-5.96,2.45-13.44,8.8-10.98,13c2.46,4.2-3.35,3.05-4.14,10.27c-0.79,7.27-5.02,6.79-8.63,7.4
				c-0.41,1.38-0.8,1.82-0.74,3.28c4.17,10.35,12.06-0.87,12.06-0.87s0.87,0.7,1.28,0.78c2-3.56,2.99-7.98,1.59-11.53
				c3.47-2.59,8.5,0.82,11.01-3.96c1.06-2.01-0.11-2.28-0.11-2.28s-2.57,0.37-3.87,0.56c-1.34-1.27,5.46-3.07,4.12-4.35
				c-3.31-0.98-6.6,2.15-9.51-2.18c0.09-0.08,0.18-0.16,0.27-0.25c6.3,4.71,24.95-5,25.62-17.87
				C197.16,183.85,193.84,179.33,189.76,181.83z M137,207.04c0.09,0.05,0.19,0.09,0.28,0.14c0.22-0.56,0.37-1.1,0.49-1.63
				c-0.14,0.43-0.28,0.86-0.4,1.31C137.24,206.92,137.12,206.98,137,207.04z M139.28,41.8c0.21,0.11,0.43,0.21,0.64,0.32
				c0.6-0.45,0.53-0.3,0.96-0.96c0.11-3.53,0.21-7.06,0.32-10.6c2.53-8.56,11.6-16.61,7.36-28.9c-0.2-0.58-0.43-1.13-0.67-1.67
				h-7.54c-0.04,0.44-0.08,0.89-0.11,1.35c1.07-0.21,2.13-0.43,3.2-0.64c0.84,4.17-0.76,6.1-2.24,8.67c1.49,0,2.99,0,4.48,0
				c0.91,4.29-2.08,7.08-5.44,8.03c0,0.11,0,0.21,0,0.32s0,0.21,0,0.32c1.17,0.11,2.35,0.21,3.52,0.32
				c0.11,0.21,0.21,0.43,0.32,0.64c-0.88,2.8-1.88,4.44-4.48,5.46c-0.21,0.32-0.43,0.64-0.64,0.96c0.96,0.11,1.92,0.21,2.88,0.32
				C139.95,30.53,137.85,32.26,139.28,41.8z M133.79,30.56c0.11,3.53,0.21,7.06,0.32,10.6c0.43,0.66,0.36,0.52,0.96,0.96
				c0.21-0.11,0.43-0.21,0.64-0.32c1.43-9.54-0.67-11.27-2.57-16.05c0.96-0.11,1.92-0.21,2.89-0.32c-0.21-0.32-0.43-0.64-0.64-0.96
				c-2.61-1.02-3.61-2.66-4.49-5.46c0.11-0.21,0.21-0.43,0.32-0.64c1.18-0.11,2.35-0.21,3.53-0.32c0-0.11,0-0.21,0-0.32
				s0-0.21,0-0.32c-3.37-0.94-6.36-3.74-5.45-8.03c1.5,0,2.99,0,4.49,0c-1.48-2.57-3.08-4.5-2.24-8.67
				c1.07,0.21,2.14,0.43,3.21,0.64c-0.03-0.46-0.07-0.91-0.11-1.35h-7.56c-0.24,0.54-0.47,1.09-0.67,1.67
				C122.17,13.96,131.26,22.01,133.79,30.56z M86.97,46.3c-1,1.29-2.11,2.39-3.29,3.26c-1.17,0.87-1.88,3.54-1.88,4.05
				c0.75,0.75,1.5,1.5,2.24,2.25c0.21-0.11,0.43-0.21,0.64-0.32c0.84-2.62,4.12-1.64,6.45-3.14c1.17-0.75,0.58-2.56,1.6-3.53
				c1.02-0.97,4,1.79,4.17-2.25c1.52-6.57-5.13-13.35,5.13-22.48c-2.32,6.37-6.96,13.7-2.24,21.51c7.19,11.9,20.87,9.94,24.69-3.85
				c0.11,0,0.21,0,0.32,0c0.67,2.33,1.91,3.42,4.81,3.53c11.43-8.36-7.63-27.71-5.45-39.49c0.39-2.13,0.98-4.05,1.68-5.84h-10.51
				c0.25,2.78,1.33,4.49,3.38,6.48c0,0.11,0,0.21,0,0.32c-1.28,0-2.57,0-3.85,0c-0.85,6.54,3.94,7.42,5.77,11.88
				C99.05,10.64,94.63,36.43,86.97,46.3z M128.66,27.68c1.96,2.96,4.93,9.79,1.6,13.16c-0.11,0-0.21,0-0.32,0
				c-0.68-1.59-1.34-2.12-3.53-2.25c-0.71,1.12-0.78,1.46-2.24,1.93c-0.05-6.34-3.82-8.61-9.3-9.63c0-0.43,0-0.86,0-1.28
				c1.19-2.95,2.76-4.6,7.05-4.5c-0.11-0.32-0.21-0.64-0.32-0.96c-4.77-3.94-8.01-4.37-12.18,0.64c0.15,3.8,1.97,4.45,2.57,7.71
				c-0.84,0.67-1.66,3.41-2.57,4.5c-2.47,2.97-4.58,5.48-1.92,10.27c3.62,6.56,12.16-1.3,9.62-9.95c-0.21-0.11-0.43-0.21-0.64-0.32
				c-1.43,0.75-2.67,2.52-3.85,1.61c-1.18-0.92-1.4-0.75-0.96-2.89c0.44-2.14,0.35-1.4,1.28-1.93c8.46-7.44,16.54,17.63-2.89,17.98
				c-5.02-1.62-14.79-9.32-10.58-16.38c0.66,2.38,0.99,2.64,3.85,3.53c2.03-0.2,2.83-0.73,3.53-2.25c2.36-3.71-1.17-6.31-5.13-6.1
				c0-0.32,0-0.64,0-0.96C106.16,16.23,121.83,17.35,128.66,27.68z M189.51,6.63c0.81-0.09,0.96-0.48,1.6-1.68
				c0.16-2.06-1.4-2.91-1.29-4.95h-4.19C187.14,3.18,188.42,6.44,189.51,6.63z M137.76,205.55c2.47-7.31,8.35-11.15,10.82-18.3
				c4.25-12.3-4.85-20.36-7.37-28.93c-0.11-3.54-0.21-7.07-0.32-10.61c-0.43-0.66-0.36-0.52-0.96-0.96
				c-0.21,0.11-0.43,0.21-0.64,0.32c-1.43,9.55,0.67,11.29,2.57,16.07c-0.96,0.11-1.92,0.21-2.89,0.32
				c0.21,0.32,0.43,0.64,0.64,0.96c2.61,1.02,3.61,2.66,4.49,5.46c-0.11,0.21-0.21,0.43-0.32,0.64c-1.18,0.11-2.35,0.21-3.53,0.32
				c0,0.11,0,0.21,0,0.32c0,0.11,0,0.21,0,0.32c3.37,0.95,6.36,3.74,5.45,8.04c-1.5,0-2.99,0-4.49,0c1.48,2.57,3.08,4.5,2.24,8.68
				c-1.07-0.21-2.14-0.43-3.21-0.64c0.15,2.09,0.5,3.92-0.32,5.79c-0.83,1.88-2.07,3.75-2.93,5.79
				C137.82,201.07,138.29,203.16,137.76,205.55z M145.36,45.33c2.89-0.11,4.13-1.2,4.8-3.53c0.11,0,0.21,0,0.32,0
				c3.81,13.79,17.47,15.75,24.65,3.85c4.71-7.81,0.08-15.15-2.24-21.51c10.24,9.13,3.6,15.91,5.12,22.48
				c0.17,4.04,3.14,1.28,4.16,2.25c1.02,0.97,0.43,2.78,1.6,3.53c2.32,1.5,5.6,0.52,6.44,3.14c0.21,0.11,0.43,0.21,0.64,0.32
				c0.75-0.75,1.49-1.5,2.24-2.25c0-0.51-0.7-3.18-1.88-4.05c-1.18-0.88-2.28-1.97-3.28-3.26c-7.64-9.87-12.06-35.66-33.61-27.61
				c1.83-4.46,6.61-5.34,5.76-11.88c-1.28,0-2.56,0-3.84,0c0-0.11,0-0.21,0-0.32c2.04-2,3.12-3.7,3.37-6.48h-10.49
				c0.7,1.79,1.28,3.71,1.68,5.84C152.98,17.63,133.96,36.97,145.36,45.33z M173.21,29.6c0,0.32,0,0.64,0,0.96
				c-3.96-0.21-7.48,2.39-5.12,6.1c0.7,1.52,1.5,2.05,3.52,2.25c2.85-0.89,3.18-1.15,3.84-3.53c4.2,7.05-5.55,14.76-10.56,16.38
				c-19.39-0.35-11.32-25.42-2.88-17.98c0.93,0.53,0.84-0.22,1.28,1.93c0.44,2.14,0.22,1.97-0.96,2.89
				c-1.18,0.92-2.42-0.85-3.84-1.61c-0.21,0.11-0.43,0.21-0.64,0.32c-2.53,8.65,5.99,16.51,9.6,9.95c2.65-4.8,0.54-7.31-1.92-10.27
				c-0.9-1.09-1.72-3.82-2.56-4.5c0.59-3.25,2.41-3.9,2.56-7.71c-4.16-5.01-7.41-4.58-12.16-0.64c-0.11,0.32-0.21,0.64-0.32,0.96
				c4.28-0.1,5.85,1.54,7.04,4.5c0,0.43,0,0.86,0,1.28c-5.47,1.02-9.23,3.3-9.28,9.63c-1.46-0.47-1.54-0.81-2.24-1.93
				c-2.19,0.13-2.84,0.66-3.52,2.25c-0.11,0-0.21,0-0.32,0c-3.32-3.37-0.35-10.21,1.6-13.16C153.14,17.35,168.78,16.23,173.21,29.6z
				 M163.66,6.54c-1.43,4.88-5.11,8.8-5.35,8.98c-0.53,0.38-1.08,0.88-1.74,1.56c4.04-1.21,9.52-1.35,14.72-1.93
				c-0.29,6.45,4.77,5.43,4.48,5.46c3.12-0.29,8.06-5.71,8.06-5.71s-7.35-7.78-10.62-7.46c-3.27,0.33-3.59,2.85-3.2,6.1
				c-5.27,0.55-7.85,0.62-9.58,1.03c-0.24,0.06,3.82-6.59,4.14-7.13c1.1,1.32,0.77,1.03,2.88,1.28c0.43-0.21,0.85-0.43,1.28-0.64
				c1.87-2.8,2.07-5.68,1.07-8.09h-6.34c0.11,0.42,0.16,0.84,0.12,1.26c-0.09,0.97-0.59,0.69-0.82,1.68
				C162.56,3.8,163.92,5.65,163.66,6.54z M182.44,0h-7.29c1.23,0.77,2.5,1.43,3.7,1.93C182.03,3.24,182.68,1.81,182.44,0z
				 M253.51,131.99c0,0-0.12,1.26,1.34,2.29c3.26,2.29,7.09,4.19,8.98,3c2.74-1.72-0.28-4.54-0.28-4.54s-1.81,0.06-4.27,0.32
				C256.82,133.32,253.51,131.99,253.51,131.99z M9.26,136.78c1.84,1.17,5.55-0.69,8.72-2.95c1.42-1.01,1.3-2.25,1.3-2.25
				s-3.21,1.3-5.6,1.05c-2.39-0.25-4.15-0.31-4.15-0.31S6.6,135.08,9.26,136.78z M216.51,8.63c0.81-0.09,0.96-0.48,1.6-1.68
				c0.16-2.09-1.45-2.93-1.29-5.02c0.55,0.53,1.79,2.65,2.99,4.99c1.2,2.33,3.81,9.01-3.13,12.15c4.08,2.5,7.39-2.02,7.12-7.16
				c-0.24-4.53-2.71-8.67-6.08-11.92h-6.1C213.59,3.64,215.18,8.4,216.51,8.63z M85.24,17.08c-6.95-3.14-4.34-9.82-3.14-12.15
				c1.17-2.27,2.36-4.32,2.93-4.92h-2.7c-2.39,2.88-4.04,6.27-4.23,9.92C77.84,15.06,81.16,19.58,85.24,17.08z M58.24,19.08
				c-6.95-3.14-4.34-9.82-3.14-12.15c1.21-2.35,2.44-4.47,2.99-4.99c0.16,2.09-1.45,2.93-1.29,5.02c0.64,1.21,0.79,1.6,1.6,1.68
				c1.33-0.23,2.93-5,4.91-8.63H57.2c-3.38,3.25-5.85,7.39-6.09,11.92C50.84,17.06,54.16,21.58,58.24,19.08z M85.4,6.63
				c1.09-0.19,2.37-3.45,3.89-6.63h-4.2c0.12,2.03-1.45,2.88-1.29,4.95C84.44,6.16,84.59,6.55,85.4,6.63z M96.07,1.93
				c1.21-0.5,2.47-1.16,3.71-1.93h-7.3C92.24,1.81,92.89,3.24,96.07,1.93z M99.16,20.61c-0.29-0.03,4.78,0.99,4.49-5.46
				c5.21,0.57,10.71,0.72,14.75,1.93c-0.67-0.68-1.21-1.18-1.74-1.56c-0.24-0.17-3.93-4.1-5.36-8.98c-0.26-0.89,1.1-2.74,0.9-3.6
				c-0.24-1-0.73-0.71-0.82-1.68c-0.04-0.42,0.02-0.84,0.12-1.26h-6.35c-1,2.41-0.8,5.29,1.07,8.09c0.43,0.21,0.86,0.43,1.28,0.64
				c2.12-0.26,1.79,0.03,2.89-1.28c0.32,0.54,4.38,7.19,4.15,7.13c-1.73-0.41-4.32-0.48-9.6-1.03c0.39-3.25,0.07-5.77-3.21-6.1
				S91.08,14.9,91.08,14.9S96.03,20.32,99.16,20.61z M115.61,173.38c0.54-0.38,1.08-0.88,1.75-1.56c-4.05,1.21-9.55,1.35-14.78,1.93
				c0.29-6.46-4.79-5.44-4.5-5.46C94.96,168.58,90,174,90,174s7.38,7.79,10.66,7.46c3.28-0.33,3.6-2.85,3.21-6.11
				c5.29-0.55,7.88-0.62,9.61-1.03c0.24-0.06-3.83,6.6-4.15,7.14c-1.1-1.32-0.77-1.03-2.89-1.29c-0.43,0.21-0.86,0.43-1.28,0.64
				c-3.64,5.44-0.99,11.19,4.5,13.18c1.07,0,2.14,0,3.21,0c-0.25-1.47-2.77-3.95-2.55-6.34c0.09-0.97,0.59-0.69,0.82-1.68
				c0.2-0.86-1.16-2.72-0.9-3.61C111.68,177.49,115.37,173.55,115.61,173.38z M126.09,242.08c0.72-1.58,0-2.6,0-2.6
				s-2.13,2.74-4.33,3.71c-2.2,0.98-3.76,1.8-3.76,1.8s-1.16,3.86,2,4C122.18,249.09,124.47,245.62,126.09,242.08z M189.67,17.08
				c4.08,2.5,7.39-2.02,7.12-7.16c-0.19-3.65-1.83-7.04-4.22-9.92h-2.69c0.58,0.61,1.76,2.65,2.93,4.92
				C194,7.26,196.61,13.94,189.67,17.08z M19.75,28.59c1.78,1.41,2.93,3.51,3.96,5.2c2.66-5.71-4.85-13.15-6.65-11.62
				c-0.96,0.81-1.98,2.21-1.08,3.71C16.49,26.72,17.43,26.74,19.75,28.59z M128.61,238c0.22,2.23,2.89,2.97,2.89,2.97L137,232
				c2.15,3.39,5.49,8.97,5.49,8.97s2.66-0.74,2.88-2.97c0.21-2.38-4.14-4.88-8.37-7C137,231,128.41,235.62,128.61,238z
				 M133.74,187.57c-1.07,0.21-2.14,0.43-3.21,0.64c-0.84-4.18,0.76-6.11,2.25-8.68c-1.5,0-3,0-4.5,0
				c-0.91-4.29,2.09-7.09,5.46-8.04c0-0.11,0-0.21,0-0.32c0-0.11,0-0.21,0-0.32c-1.18-0.11-2.36-0.21-3.53-0.32
				c-0.11-0.21-0.21-0.43-0.32-0.64c0.88-2.81,1.89-4.45,4.5-5.46c0.21-0.32,0.43-0.64,0.64-0.96c-0.96-0.11-1.93-0.21-2.89-0.32
				c1.9-4.79,4-6.52,2.57-16.07c-0.21-0.11-0.43-0.21-0.64-0.32c-0.6,0.45-0.53,0.3-0.96,0.96c-0.11,3.54-0.21,7.07-0.32,10.61
				c-2.53,8.57-11.64,16.63-7.39,28.93c2.48,7.16,8.38,11.01,10.85,18.33c-0.53-2.41-0.06-4.5,0.76-6.44
				c-0.86-2.04-2.1-3.91-2.93-5.79C133.24,191.49,133.59,189.66,133.74,187.57z M173.28,181.46c3.27,0.33,10.64-7.46,10.64-7.46
				s-4.95-5.42-8.08-5.71c0.29,0.03-4.78-0.99-4.49,5.46c-5.21-0.57-10.71-0.72-14.75-1.93c0.67,0.68,1.21,1.18,1.74,1.56
				c0.24,0.17,3.93,4.11,5.36,8.99c0.26,0.89-1.1,2.75-0.9,3.61c0.24,1,0.73,0.71,0.82,1.68c0.22,2.38-2.29,4.87-2.54,6.34
				c1.07,0,2.14,0,3.21,0c5.47-1.99,8.13-7.74,4.49-13.18c-0.43-0.21-0.86-0.43-1.28-0.64c-2.12,0.26-1.79-0.03-2.89,1.29
				c-0.32-0.54-4.38-7.19-4.15-7.14c1.73,0.41,4.32,0.48,9.6,1.03C169.68,178.62,170,181.14,173.28,181.46z M15.78,33.78
				c2.2,0.98,4.32,3.71,4.32,3.71s0.72-1.02,0-2.6c-1.62-3.54-3.9-7-6.08-6.91c-3.15,0.14-2,4-2,4S13.58,32.8,15.78,33.78z
				 M254.87,34.89c-0.72,1.58,0,2.6,0,2.6s2.12-2.73,4.32-3.71c2.2-0.98,3.74-1.8,3.74-1.8s1.15-3.86-1.99-4
				C258.76,27.89,256.49,31.36,254.87,34.89z M251.27,33.78c1.03-1.69,2.18-3.78,3.96-5.2c2.32-1.84,3.25-1.86,3.76-2.71
				c0.9-1.5-0.12-2.9-1.08-3.71C256.12,20.64,248.62,28.07,251.27,33.78z M152.22,243.2c-2.2-0.98-4.32-3.71-4.32-3.71
				s-0.72,1.02,0,2.6c1.62,3.54,3.9,7.01,6.08,6.92c3.15-0.14,2-4,2-4S154.42,244.18,152.22,243.2z M148.25,248.4
				c-1.78-1.42-2.93-3.51-3.96-5.2c-2.66,5.72,4.85,13.16,6.65,11.63c0.96-0.82,1.98-2.21,1.08-3.71
				C151.51,250.26,150.57,250.24,148.25,248.4z M130.78,251.37c-1.34,2-4.11,4.79-4.05,6.32c0.05,1.53,0.93,2.42,3.61,1.86
				c5.63-1.17,3.33-13.75,3.33-13.75S133.12,247.87,130.78,251.37z M140.32,245.8c0,0-2.29,12.57,3.33,13.75
				c2.68,0.56,3.55-0.33,3.6-1.86s-2.71-4.31-4.05-6.32C140.87,247.87,140.32,245.8,140.32,245.8z M129.7,243.2
				c-1.03,1.69-2.19,3.78-3.97,5.2c-2.32,1.84-3.27,1.87-3.78,2.71c-0.9,1.5,0.12,2.9,1.08,3.71
				C124.84,256.36,132.36,248.92,129.7,243.2z"/>
		</g>
	</g>
</g>
<g id="DIGRA25_ta_x2019__MALTA_00000048485680470682526200000012228950712768847806_" class="st1">
	<g id="DIGRA25_ta_x2019__MALTA">
		<g>
			<path class="st5" d="M57.08,80.22c-0.31-0.39-0.51-1.07-0.61-2.03c-0.47-3.89-1.55-7.01-3.25-9.38c-0.8-1.12-1.71-2.06-2.72-2.81
				c-1.02-0.75-2.1-1.35-3.26-1.79c-1.16-0.45-2.37-0.76-3.64-0.94c-1.27-0.18-2.73-0.27-4.37-0.27c-1.64,0-3.43,0.28-5.35,0.85
				c-0.81-0.41-1.7-0.61-2.65-0.61s-1.85,0.27-2.7,0.81c-0.81-0.54-1.71-0.81-2.67-0.81c-0.97,0-1.83,0.23-2.58,0.68
				c-0.33,0.2-0.58,0.43-0.77,0.71c-0.19,0.28-0.28,0.57-0.28,0.89s0.09,0.6,0.27,0.84c0.36-0.28,0.81-0.42,1.37-0.42
				c1.45,0,2.45,0.63,3,1.88v10.3c0,0.8-0.28,1.51-0.83,2.15c-0.33,0.39-1.04,0.84-2.15,1.34c1.19,0.59,2.03,1.18,2.51,1.78
				c0.31,0.36,0.46,0.91,0.46,1.66v11.94c-0.55,1.24-1.55,1.86-3,1.86c-0.55,0-1.01-0.14-1.37-0.42c-0.18,0.24-0.27,0.53-0.27,0.85
				c0,0.63,0.35,1.16,1.05,1.59c0.34,0.21,0.74,0.38,1.2,0.5c0.46,0.12,1.04,0.18,1.75,0.18s1.48-0.26,2.31-0.78
				c0.83,0.52,1.78,0.78,2.86,0.78c1.2,0,2.17-0.21,2.91-0.63c1.51,0.59,3.22,0.88,5.13,0.88c4.75,0,8.62-1.42,11.6-4.25
				c3.09-2.93,4.91-7.1,5.44-12.5c0.1-0.94,0.39-1.72,0.88-2.34c0.29-0.37,0.91-0.74,1.86-1.1C58.31,81.32,57.6,80.85,57.08,80.22z
				 M30.57,91.42c-0.08,1.82-0.53,2.89-1.34,3.2v-3.17c0-4.93-0.1-7.79-0.29-8.57c-0.13-0.49-0.68-0.9-1.66-1.25
				c0.88-0.28,1.43-0.74,1.66-1.39c0.2-0.78,0.29-4,0.29-9.67c0.28,0.13,0.57,0.39,0.89,0.79c0.32,0.4,0.5,1.56,0.55,3.48
				c0.02,0.65,0.03,1.51,0.04,2.58c0.01,1.07,0.01,3.21,0.01,6.43S30.66,89.6,30.57,91.42z M46.24,82.98
				c0.33,0.37,0.49,1.07,0.49,2.1c0,4.7-0.66,8.15-1.98,10.35c-0.65,1.07-1.45,1.87-2.4,2.38s-2.08,0.77-3.37,0.77
				s-2.33-0.44-3.11-1.32V66.84c0.24-0.29,0.63-0.45,1.15-0.48c0.52-0.02,1.06-0.04,1.61-0.04c1.79,0,3.34,0.68,4.66,2.03
				c0.6,0.62,1.12,1.33,1.55,2.14c0.43,0.81,0.79,1.65,1.07,2.53c0.28,0.88,0.49,1.77,0.62,2.66c0.13,0.9,0.2,1.79,0.2,2.7
				s-0.24,1.65-0.73,2.23c-0.29,0.34-0.94,0.68-1.93,1.03C45.08,82.01,45.8,82.46,46.24,82.98z M51.12,87.96
				c-0.15,0.98-0.34,1.9-0.57,2.77c-0.24,0.87-0.52,1.68-0.85,2.44c-0.33,0.76-0.87,1.24-1.6,1.45c0.23-0.73,0.57-2.13,1.03-4.19
				c0.46-2.06,0.68-4.19,0.68-6.38v-0.61c0-0.18-0.02-0.36-0.05-0.54c-0.05-0.41-0.56-0.83-1.54-1.27c0.34-0.11,0.66-0.27,0.95-0.46
				c0.16-0.11,0.31-0.24,0.45-0.39c0.14-0.15,0.21-0.63,0.21-1.46c0-2.42-0.61-5.34-1.83-8.74c0.75,0.16,1.38,0.72,1.88,1.66
				c1.16,2.39,1.73,5.54,1.73,9.45C51.61,83.86,51.45,85.96,51.12,87.96z M73.02,100.8c0.83,0.52,1.73,0.78,2.69,0.78
				c0.96,0,1.81-0.23,2.56-0.68c0.33-0.2,0.58-0.43,0.77-0.71c0.19-0.28,0.28-0.57,0.28-0.89s-0.09-0.6-0.27-0.84
				c-0.36,0.28-0.81,0.42-1.37,0.42c-1.45,0-2.45-0.62-3-1.86V85.08c0-0.75,0.24-1.42,0.71-2c0.33-0.37,1.08-0.85,2.27-1.44
				c-1.11-0.5-1.93-1.07-2.47-1.71c-0.34-0.39-0.51-0.98-0.51-1.78v-10.3c0.55-1.25,1.55-1.88,3-1.88c0.55,0,1.01,0.14,1.37,0.42
				c0.18-0.24,0.27-0.53,0.27-0.85c0-0.63-0.35-1.16-1.05-1.59c-0.34-0.21-0.74-0.38-1.2-0.5c-0.46-0.12-1.04-0.18-1.76-0.18
				c-0.72,0-1.48,0.27-2.29,0.81c-0.85-0.54-1.79-0.81-2.83-0.81c-1.04,0-1.99,0.27-2.83,0.81c-0.81-0.54-1.71-0.81-2.67-0.81
				c-0.97,0-1.83,0.23-2.58,0.68c-0.33,0.2-0.58,0.43-0.77,0.71c-0.19,0.28-0.28,0.57-0.28,0.89s0.09,0.6,0.27,0.84
				c0.36-0.28,0.81-0.42,1.37-0.42c1.45,0,2.45,0.63,3,1.88v10.3c0,0.8-0.28,1.51-0.83,2.15c-0.33,0.39-1.04,0.84-2.15,1.34
				c1.19,0.59,2.03,1.18,2.51,1.78c0.31,0.36,0.46,0.91,0.46,1.66v11.94c-0.55,1.24-1.55,1.86-3,1.86c-0.55,0-1.01-0.14-1.37-0.42
				c-0.18,0.24-0.27,0.53-0.27,0.85c0,0.63,0.35,1.16,1.05,1.59c0.34,0.21,0.74,0.38,1.2,0.5c0.46,0.12,1.04,0.18,1.75,0.18
				s1.48-0.26,2.31-0.78c0.83,0.52,1.77,0.78,2.83,0.78C71.25,101.58,72.19,101.32,73.02,100.8z M69.38,91.42
				c-0.08,1.82-0.53,2.89-1.34,3.2v-3.17c0-4.93-0.1-7.79-0.29-8.57c-0.13-0.49-0.68-0.9-1.66-1.25c0.88-0.28,1.43-0.74,1.66-1.39
				c0.2-0.78,0.29-4,0.29-9.67c0.28,0.13,0.57,0.39,0.89,0.79c0.32,0.4,0.5,1.56,0.55,3.48c0.02,0.65,0.03,1.51,0.04,2.58
				c0.01,1.07,0.01,3.21,0.01,6.43S69.48,89.6,69.38,91.42z M115.31,100.95c0.73-0.42,1.1-0.97,1.1-1.64c0-0.33-0.09-0.61-0.27-0.85
				c-0.36,0.28-0.73,0.42-1.12,0.42c-1.04,0-1.72-0.5-2.03-1.51v-8.01c0.55-1.11,1.12-1.66,1.71-1.66s1.07,0.14,1.44,0.42
				c0.18-0.18,0.27-0.46,0.27-0.85c0-0.65-0.29-1.2-0.88-1.64c-0.26-0.2-0.56-0.35-0.9-0.46c-0.34-0.11-0.81-0.17-1.42-0.17
				c-0.6,0-1.25,0.24-1.93,0.73c-0.73-0.49-1.55-0.73-2.44-0.73c-0.9,0-1.73,0.24-2.51,0.71c-0.57-0.47-1.29-0.71-2.16-0.71
				c-0.87,0-1.52,0.22-1.94,0.67c-0.42,0.45-0.63,0.92-0.63,1.43c0,0.5,0.09,0.85,0.27,1.03c0.36-0.28,0.81-0.42,1.37-0.42
				c0.55,0,0.98,0.15,1.29,0.46v5.64c0,0.77-0.11,1.44-0.32,2.03c-0.65,1.79-1.98,2.69-3.98,2.69c-1.69,0-2.93-0.5-3.71-1.5
				s-1.17-2.53-1.17-4.6v-6.54c0-1.95,0.89-3.36,2.69-4.22c-1.79-0.78-2.69-2.09-2.69-3.93v-4.05c0-5.11,2.21-7.67,6.62-7.67
				c1.94,0,3.52,0.33,4.76,0.98c0.55,0.29,0.98,0.64,1.28,1.04c0.3,0.4,0.47,0.9,0.5,1.5c0.03,0.6-0.26,1.17-0.88,1.71
				c-0.91,0.77-1.87,0.99-2.88,0.68c-0.05,0.13-0.07,0.26-0.07,0.39c0.03,0.59,0.36,1.12,0.98,1.61c0.28,0.23,0.58,0.41,0.9,0.54
				c0.33,0.13,0.58,0.19,0.76,0.18c0.18-0.01,0.3-0.01,0.37-0.01c0.06,0,0.14-0.02,0.22-0.05c0.05,0.18,0.07,0.33,0.07,0.44
				c0,0.93-0.2,1.69-0.61,2.29c0.18,0.16,0.61,0.21,1.31,0.13c0.69-0.07,1.32-0.35,1.89-0.82c0.57-0.47,1.03-1.07,1.39-1.78
				c0.21,0.08,0.44,0.15,0.68,0.2c0.99,0.24,1.97-0.35,2.93-1.78c-0.24-0.11-0.45-0.24-0.61-0.37c-0.41-0.29-0.74-1.06-1-2.29
				c-0.49-2.2-1.75-3.98-3.78-5.35c-2.2-1.48-4.92-2.22-8.15-2.22c-4.7,0-8.62,1.29-11.74,3.86c-1.53,1.27-2.78,2.81-3.76,4.63
				c-0.98,1.82-1.6,3.79-1.86,5.93c-0.26,2.14-1.1,3.54-2.51,4.21c1.42,0.68,2.25,2.08,2.49,4.2c0.57,5.05,2.34,8.99,5.32,11.84
				c1.4,1.35,3.02,2.38,4.85,3.09s3.97,1.06,6.42,1.06c2.45,0,4.93-0.44,7.43-1.32c0.99,0.72,2.17,1.07,3.53,1.07
				C113.53,101.58,114.57,101.37,115.31,100.95z M90.14,94.62c-0.39-0.49-0.75-1.03-1.07-1.64c-0.9-1.69-1.64-5.06-2.22-10.11
				c-0.05-0.42-0.53-0.84-1.44-1.25c0.91-0.37,1.39-0.77,1.44-1.2c0.36-2.95,0.84-5.28,1.44-7.01c0.33-0.94,0.87-1.9,1.64-2.86
				c0.21,0.07,0.32,0.2,0.32,0.42c0,0.21-0.06,0.52-0.17,0.93c-0.96,2.8-1.44,6.18-1.44,10.13c0,2.44,0.14,4.59,0.43,6.43
				c0.28,1.85,0.6,3.16,0.94,3.93c0.34,0.77,0.51,1.34,0.51,1.7C90.5,94.35,90.38,94.52,90.14,94.62z M108.45,92.99
				c0,1.48-0.47,2.51-1.42,3.1v-7.2c0.94,0.42,1.42,1.33,1.42,2.71V92.99z M120.58,98.87c-0.55,0-1.01-0.14-1.37-0.42
				c-0.18,0.24-0.27,0.53-0.27,0.85c0,0.63,0.35,1.16,1.05,1.59c0.34,0.21,0.74,0.38,1.2,0.5c0.46,0.12,1.04,0.18,1.75,0.18
				s1.48-0.26,2.31-0.78c0.83,0.52,1.77,0.78,2.83,0.78c1.06,0,2-0.26,2.83-0.78c0.8,0.52,1.71,0.78,2.73,0.78s1.79-0.22,2.31-0.67
				s0.77-0.91,0.77-1.38c0-0.47-0.09-0.83-0.27-1.07c-0.36,0.28-0.81,0.42-1.37,0.42c-1.24,0-2.08-0.58-2.51-1.73V85.25h2.86
				c0.96,0,1.8,0.19,2.51,0.56c2.15,1.12,3.22,3.56,3.22,7.32v1.81c0,2.33,0.38,4.05,1.15,5.18c0.36,0.52,0.77,0.9,1.23,1.12
				s0.95,0.34,1.45,0.34c0.5,0,0.98-0.14,1.44-0.42c1.19,0.6,2.47,0.53,3.83-0.22c0.75,0.42,1.51,0.63,2.29,0.63
				c0.62,0,1.18-0.15,1.68-0.44c0.43,0.29,0.97,0.44,1.63,0.44c0.77,0,1.46-0.22,2.06-0.66c0.54,0.44,1.18,0.66,1.94,0.66
				s1.43-0.2,2.01-0.61c0.67,0.41,1.4,0.61,2.2,0.61c0.8,0,1.45-0.19,1.95-0.57c0.5-0.38,0.76-0.83,0.76-1.34s-0.09-0.92-0.27-1.21
				c-0.47,0.28-1.18,0.42-2.14,0.42s-1.76-0.51-2.43-1.54l1.61-5.4h13.21l1.86,6.23c-0.39,0.39-1.07,0.59-2.03,0.59
				c-0.46,0-0.9-0.14-1.34-0.42c-0.18,0.11-0.27,0.4-0.27,0.85c0.03,0.77,0.37,1.35,1.03,1.77c0.65,0.42,1.47,0.62,2.47,0.62
				c0.99,0,1.86-0.27,2.59-0.81c0.76,0.54,1.68,0.81,2.75,0.81c1.07,0,2.02-0.28,2.87-0.83c0.75,0.55,1.63,0.83,2.64,0.83
				c1.01,0,1.77-0.24,2.29-0.73c0.24-0.23,0.42-0.49,0.54-0.79c0.11-0.3,0.17-0.63,0.17-0.99c0-0.36-0.09-0.6-0.27-0.73
				c-0.41,0.28-0.98,0.42-1.71,0.42s-1.46-0.37-2.17-1.12l-4.66-12.5c-0.13-0.31-0.2-0.67-0.2-1.07c0-1.07,0.81-1.88,2.44-2.42
				c-0.46-0.16-0.9-0.34-1.34-0.54c-1.56-0.7-2.54-1.68-2.93-2.93l-3.12-9.99c0.33-1.48,1.03-2.22,2.12-2.22
				c0.5,0,0.94,0.14,1.32,0.42c0.2-0.24,0.29-0.53,0.29-0.85c0-0.7-0.3-1.25-0.89-1.66c-0.59-0.41-1.43-0.61-2.5-0.61
				s-2.13,0.33-3.17,0.98c-0.72-0.65-1.68-0.98-2.89-0.98c-1.21,0-2.23,0.34-3.04,1.03c-0.8-0.68-1.77-1.03-2.91-1.03
				c-1.14,0-2.02,0.26-2.64,0.78c-0.28,0.24-0.49,0.53-0.65,0.85c-0.15,0.33-0.23,0.67-0.23,1.04s0.08,0.7,0.24,0.99
				c0.62-0.31,1.29-0.46,2-0.46c0.72,0,1.33,0.35,1.86,1.05l-2.69,9.01c-0.47,1.46-1.12,2.65-1.93,3.54
				c-0.52,0.57-1.42,1.1-2.71,1.59c1.4,0.41,2.1,1.35,2.1,2.83c0,0.42-0.07,0.89-0.22,1.39l-0.49,1.68l-3.47,10.28
				c-0.33,0.33-0.66,0.58-1.01,0.77c-0.32,0.17-0.8,0.26-1.42,0.28c-0.04-0.15-0.11-0.28-0.2-0.41c-0.21,0.16-0.46,0.26-0.73,0.33
				c-0.35-0.07-0.68-0.17-0.95-0.33c-0.06,0.09-0.1,0.23-0.14,0.37c-0.35-0.05-0.69-0.12-1.01-0.27c-1.51-0.68-2.27-2.2-2.27-4.54
				v-2.44c0-1.92-0.54-3.59-1.61-5c-1.04-1.37-2.38-2.27-4.03-2.71c3.19-0.8,5.18-2.81,5.98-6.03c0.39-1.56,1.22-2.7,2.49-3.42
				c-1.33-0.62-2.11-1.53-2.32-2.73c-0.54-2.7-1.9-4.81-4.1-6.32c-1.09-0.75-2.39-1.33-3.91-1.73c-1.51-0.41-3.39-0.61-5.63-0.61
				c-2.24,0-4.28,0.35-6.12,1.05c-0.85-0.54-1.79-0.81-2.83-0.81c-1.04,0-1.99,0.27-2.83,0.81c-0.81-0.54-1.71-0.81-2.67-0.81
				c-0.97,0-1.83,0.23-2.58,0.68c-0.33,0.2-0.58,0.43-0.77,0.71c-0.19,0.28-0.28,0.57-0.28,0.89s0.09,0.6,0.27,0.84
				c0.36-0.28,0.81-0.42,1.37-0.42c1.45,0,2.45,0.63,3,1.88v10.3c0,0.8-0.28,1.51-0.83,2.15c-0.33,0.39-1.04,0.84-2.15,1.34
				c1.19,0.59,2.03,1.18,2.51,1.78c0.31,0.36,0.46,0.91,0.46,1.66v11.94C123.03,98.25,122.03,98.87,120.58,98.87z M173.36,70.89
				c0.7,0.59,1.23,1.45,1.59,2.59l1.51,4.57c0.16,0.46,0.29,0.81,0.39,1.05s0.18,0.44,0.26,0.6c0.07,0.15,0.15,0.29,0.22,0.4
				c0.07,0.11,0.17,0.27,0.28,0.46c0.24,0.47,0.93,0.82,2.05,1.05c-0.81,0.29-1.21,0.9-1.2,1.81c0,0.55,0.33,1.9,0.98,4.05
				l0.93,2.86c0.34,1.07,0.51,2.18,0.51,3.32c0,0.65-0.15,0.98-0.44,0.98l-1.27-3.56c-0.47-1.35-1.89-5.66-4.25-12.92
				c-0.34-1.11-1.06-3.63-2.15-7.57C172.96,70.61,173.15,70.71,173.36,70.89z M170.12,69.82l5.66,18.82h-11.23L170.12,69.82z
				 M144.12,68.72c0.18,0.29,0.35,0.69,0.51,1.2c0.16,0.5,0.32,1.17,0.48,1.99c0.15,0.82,0.33,1.4,0.52,1.75
				c0.18,0.29,0.59,0.55,1.22,0.76c-0.86,0.29-1.38,0.97-1.56,2.03l-0.2,1c-0.39,2.21-1.03,3.41-1.93,3.59
				c0.41-0.85,0.61-3.43,0.61-7.74c0-2.51-0.25-4.33-0.76-5.47C143.44,67.9,143.81,68.2,144.12,68.72z M144.8,89.1
				c0.36,0.54,0.54,1.45,0.54,2.73v3.42c0,1.01,0.29,1.97,0.88,2.88c-0.28,0.07-0.56,0.07-0.85,0.02c-1.07-0.18-1.61-1.62-1.61-4.32
				v-3.22c0-1.06-0.33-1.95-0.98-2.69C143.51,87.8,144.18,88.19,144.8,89.1z M132.57,69.89c0-2.42,1.56-3.64,4.69-3.64
				c0.55,0,1.08,0.09,1.59,0.27c1.69,0.57,2.54,1.87,2.54,3.91v7.13c0,1.64-0.37,2.82-1.1,3.52c-0.36,0.34-0.79,0.58-1.28,0.72
				c-0.5,0.14-1.37,0.21-2.61,0.21s-2.19-0.14-2.82-0.42c-0.67-0.29-1-0.86-1-1.71V69.89z M125.63,80.24c0.2-0.78,0.29-4,0.29-9.67
				c0.28,0.13,0.57,0.39,0.89,0.79c0.32,0.4,0.5,1.56,0.55,3.48c0.02,0.65,0.03,1.51,0.04,2.58c0.01,1.07,0.01,3.21,0.01,6.43
				s-0.05,5.75-0.15,7.57c-0.08,1.82-0.53,2.89-1.34,3.2v-3.17c0-4.93-0.1-7.79-0.29-8.57c-0.13-0.49-0.68-0.9-1.66-1.25
				C124.85,81.36,125.41,80.89,125.63,80.24z M218.8,70.09c-1.12-2.46-2.67-4.22-4.64-5.3c-0.98-0.54-2.06-0.93-3.26-1.17
				s-2.77-0.37-4.72-0.37s-3.74,0.27-5.35,0.81c-0.88,0.29-1.48,0.44-1.81,0.44c-0.49,0-0.73-0.22-0.73-0.66
				c0-0.34,0.11-0.67,0.34-0.98c-0.36-0.18-0.75-0.27-1.17-0.27c-0.86,0-1.6,0.32-2.2,0.95c-0.29,0.31-0.52,0.66-0.67,1.06
				c-0.15,0.4-0.23,0.88-0.23,1.44s0.26,1.18,0.78,1.84c-0.62,0.65-0.93,1.43-0.93,2.34c0,0.91,0.43,1.65,1.29,2.22
				c-0.26,0.59-0.39,1.39-0.39,2.4c0,1.02,0.41,1.9,1.22,2.65c0.36,0.31,0.75,0.54,1.17,0.7c0.42,0.15,0.83,0.23,1.23,0.23
				c0.4,0,0.79-0.15,1.16-0.46c-0.83-1.04-1.25-2.62-1.25-4.74c0-2.12,0.61-3.78,1.83-5c1.14-1.14,2.53-1.71,4.17-1.71
				c3.24,0,4.86,2.38,4.86,7.13c0,2.54-0.49,4.64-1.46,6.3c-0.81,1.35-2.21,2.69-4.17,4c-3.3,1.97-5.66,3.86-7.06,5.66
				c-0.78,1.03-1.37,2.12-1.77,3.28c-0.4,1.16-0.6,2.32-0.6,3.48c0,1.16,0.14,2.15,0.42,2.98c-0.2,0.21-0.48,0.41-0.85,0.59
				c0,0.62,0.2,1.12,0.6,1.5c0.4,0.38,0.99,0.57,1.78,0.57c0.79,0,1.66-0.41,2.6-1.22c2.69,0.52,5.29,0.78,7.8,0.78
				s4.95-0.16,7.31-0.49c0.65,0.33,1.35,0.49,2.1,0.49c0.75,0,1.37-0.18,1.86-0.54c0.23-0.18,0.41-0.4,0.55-0.67
				c0.14-0.27,0.21-0.59,0.21-0.98c0-0.38-0.11-0.76-0.34-1.14c0.42-0.42,0.63-1,0.63-1.73s-0.31-1.3-0.93-1.71
				c0.8-0.83,1.2-1.74,1.2-2.73c0-0.99-0.28-1.81-0.83-2.47c-0.26-0.29-0.57-0.53-0.92-0.71c-0.35-0.18-0.75-0.27-1.21-0.27
				c-0.46,0-0.73,0.11-0.83,0.34c0.2,0.34,0.29,0.75,0.29,1.22c0,1.29-0.56,2.21-1.68,2.78c-0.6,0.33-1.41,0.57-2.42,0.72
				c-1.01,0.15-2.78,0.23-5.32,0.23s-4.94-0.2-7.2-0.59c0.31-1.29,1.19-2.53,2.64-3.74c0.78-0.65,1.8-1.35,3.05-2.1
				c1.25-0.75,2.64-1.49,4.15-2.23c1.51-0.74,2.74-1.43,3.69-2.06c2.73-1.89,4.7-4.28,5.88-7.18c0.65-1.63,1.46-2.72,2.44-3.27
				C220.09,72.17,219.32,71.27,218.8,70.09z M206.81,96.89c3.78,0,6.53-0.38,8.25-1.15c0.05,0.37-0.03,0.7-0.24,0.98
				c-0.34,0.46-1.38,0.79-3.12,1c-0.75,0.08-1.55,0.14-2.4,0.17c-0.85,0.03-1.95,0.05-3.28,0.05c-1.33,0-2.57-0.07-3.71-0.22
				c-0.75-0.08-1.41-0.2-1.99-0.34c-0.58-0.15-0.93-0.3-1.06-0.46c-0.13-0.16-0.22-0.34-0.27-0.54s-0.04-0.34,0.02-0.44
				C200.43,96.58,203.03,96.89,206.81,96.89z M213.62,73.72c-0.13,0.21-0.22,0.46-0.28,0.73c-0.06,0.28-0.13,0.66-0.22,1.15
				c-0.09,0.49-0.22,0.96-0.38,1.42c-0.47,1.24-1.03,1.92-1.68,2.05c0.46-1.09,0.68-3.04,0.68-5.86c0-2.88-0.6-5-1.81-6.35
				c0.39,0.07,0.76,0.22,1.1,0.46c1.01,0.7,1.72,1.77,2.12,3.22l0.24,0.85c0.06,0.23,0.17,0.46,0.32,0.7
				c0.15,0.24,0.55,0.46,1.2,0.67C214.3,72.98,213.87,73.3,213.62,73.72z M251.98,87.32c-0.23-0.23-0.43-0.48-0.61-0.77
				c-0.18-0.28-0.37-0.87-0.57-1.75c-0.2-0.88-0.62-1.86-1.26-2.93c-1.97-3.27-5.57-4.91-10.79-4.91c-3.27,0-6.01,0.65-8.2,1.95
				v-7.81c1.76-0.63,3.97-0.95,6.63-0.95s4.78,0.23,6.36,0.68c0.73,0.21,1.27,0.45,1.6,0.72c0.33,0.27,0.5,0.67,0.5,1.2
				c0,0.53-0.11,0.91-0.32,1.14c0.1,0.42,0.5,0.63,1.22,0.63c0.75,0,1.39-0.29,1.93-0.88c0.24-0.24,0.43-0.53,0.56-0.85
				c0.13-0.33,0.2-0.74,0.2-1.26s-0.15-0.96-0.44-1.35c0.52-0.44,0.78-1.03,0.78-1.78c0-0.75-0.28-1.33-0.83-1.73
				c0.36-0.47,0.54-0.97,0.54-1.5c0-0.53-0.25-0.99-0.76-1.38c-0.24-0.18-0.51-0.31-0.81-0.4c-0.29-0.09-0.77-0.13-1.42-0.13
				c-0.65,0-1.42,0.18-2.32,0.54c-2.69-0.36-5.03-0.54-7.02-0.54c-1.99,0-4.08,0.33-6.26,0.98c-0.44-0.65-0.96-0.98-1.57-0.98
				s-1.05,0.1-1.31,0.29c-0.63,0.44-0.98,1.48-1.05,3.12v12.6c-0.07,1.76,0.85,2.64,2.73,2.64c0.41,0,0.79-0.09,1.16-0.26
				s0.82-0.36,1.35-0.57c0.54-0.21,1.21-0.4,2.03-0.57c0.81-0.17,1.74-0.26,2.77-0.26c1.03,0,1.83,0.2,2.38,0.59
				c1.68,1.12,2.51,3.37,2.51,6.74v3.42c0,1.37-0.15,2.52-0.46,3.47c-0.88,2.54-2.49,3.81-4.83,3.81c-2.03,0-3.71-0.57-5.03-1.71
				c-1.4-1.24-2.1-2.91-2.1-5c0-2.07,0.42-3.63,1.25-4.69c-0.34-0.31-0.74-0.46-1.2-0.46c-1.06,0-1.94,0.36-2.64,1.07
				c-0.31,0.34-0.55,0.73-0.72,1.17s-0.26,1.01-0.26,1.71c0,0.7,0.06,1.25,0.17,1.66c-0.88,0.55-1.32,1.33-1.32,2.32
				c0,0.99,0.32,1.85,0.95,2.56c-0.52,0.62-0.78,1.33-0.78,2.12c0,0.8,0.33,1.53,0.98,2.2c0.29,0.31,0.75,0.61,1.37,0.89
				c0.62,0.28,1.34,0.24,2.17-0.13c-0.23-0.33-0.34-0.69-0.34-1.1s0.24-0.61,0.71-0.61c0.26,0,0.55,0.07,0.88,0.2
				c1.82,0.75,4,1.12,6.54,1.12c4.17,0,7.29-0.75,9.38-2.25c2.13-1.53,3.61-4.21,4.44-8.03c0.26-1.2,1.07-2.19,2.44-2.95
				C252.73,88.02,252.29,87.68,251.98,87.32z M231.12,66.9c0.33-0.3,1.17-0.54,2.5-0.72c0.62-0.1,1.3-0.17,2.04-0.22
				c0.74-0.05,1.75-0.07,3.03-0.07c1.28,0,2.49,0.11,3.63,0.33c1.14,0.22,1.84,0.47,2.11,0.76c0.27,0.28,0.38,0.67,0.33,1.16
				c-1.53-0.76-3.96-1.15-7.28-1.15s-5.57,0.32-6.74,0.95C230.66,67.55,230.78,67.2,231.12,66.9z M246.24,89.17
				c-0.33,0.43-0.6,1.28-0.83,2.54c-0.23,1.26-0.57,2.3-1.03,3.11c-0.28,0.47-0.7,0.77-1.27,0.88c0.62-1.24,0.93-3.69,0.93-7.37
				c0-2.7-0.51-4.97-1.54-6.81c0.62,0.1,1.21,0.54,1.77,1.32s0.93,1.62,1.11,2.51c0.18,0.9,0.42,1.58,0.73,2.05
				c0.31,0.47,0.7,0.78,1.17,0.93C246.91,88.45,246.57,88.73,246.24,89.17z M78.81,121.77c-0.08,0-0.25,0.03-0.5,0.1
				c-0.25,0.07-0.41,0.16-0.46,0.29c0.03,0.23,0.05,0.48,0.05,0.75c0,0.27-0.04,0.53-0.13,0.78c-0.09,0.25-0.21,0.45-0.37,0.61
				c-0.15,0.16-0.33,0.28-0.53,0.35c-0.2,0.08-0.41,0.12-0.62,0.12c-0.22,0-0.42-0.03-0.6-0.1c-0.64-0.24-0.96-1.07-0.96-2.49v-8.26
				h2.86c0.33,0,0.62-0.09,0.85-0.27c0.24-0.18,0.35-0.43,0.35-0.73s-0.03-0.52-0.1-0.65h-3.97v-5.09c-0.42,0-0.75,0.14-0.98,0.43
				c-0.23,0.28-0.41,0.75-0.55,1.39c-0.16-0.2-0.39-0.31-0.69-0.31c-0.3,0-0.64,0.29-1.02,0.88c-0.43,0.65-0.65,1.4-0.65,2.26v0.39
				c-0.82-0.13-1.43,0.02-1.82,0.44c-0.15,0.16-0.26,0.34-0.32,0.54c-0.06,0.2-0.09,0.38-0.09,0.55c0,0.17,0.06,0.33,0.17,0.48
				c0.18-0.14,0.41-0.21,0.68-0.21c0.76,0,1.14,0.46,1.14,1.39v1.44c0,0.81-0.42,1.46-1.26,1.94c0.84,0.42,1.26,0.83,1.26,1.21v1.49
				c0,0.94,0.13,1.73,0.4,2.36c0.73,1.7,2.22,2.55,4.47,2.55c1.18,0,2.21-0.35,3.1-1.04c0.4-0.31,0.72-0.66,0.96-1.06
				c0.24-0.4,0.36-0.8,0.36-1.21c0-0.41-0.09-0.73-0.28-0.96C79.37,121.89,79.12,121.77,78.81,121.77z M72.44,118.84
				c0,0.11,0,0.25-0.01,0.45c0,0.19-0.01,0.44-0.01,0.75c0,0.31-0.02,0.74-0.05,1.29c-0.05,0.77-0.26,1.28-0.65,1.53v-0.79
				c0-1.44-0.05-2.36-0.15-2.75c-0.07-0.24-0.34-0.45-0.83-0.62c0.48-0.16,0.76-0.37,0.83-0.61c0.02-0.09,0.05-0.17,0.09-0.23
				c0.04-0.07,0.05-0.66,0.05-1.79v-3.81c0.28,0.18,0.46,0.5,0.56,0.98c0.05,0.21,0.09,0.8,0.11,1.76c0.02,0.4,0.03,0.82,0.03,1.25
				c0,0.44,0.01,0.84,0.01,1.21c0,0.37,0.01,0.67,0.01,0.91V118.84z M93.71,124.98c-0.44,0-0.78-0.31-1.01-0.92v-3.66
				c0-0.37,0.11-0.69,0.33-0.98c0.15-0.19,0.48-0.4,0.99-0.63c-0.48-0.16-0.82-0.37-1.02-0.62c-0.2-0.25-0.3-0.58-0.3-0.98v-0.99
				c0-0.79-0.1-1.47-0.31-2.05c-0.62-1.73-2.33-2.59-5.14-2.59c-1.69,0-3.08,0.39-4.17,1.16c-0.9,0.64-1.4,1.28-1.5,1.9
				c-0.09,0.51-0.34,0.89-0.74,1.14c0.11,0.19,0.27,0.33,0.46,0.44c0.19,0.11,0.37,0.16,0.52,0.16s0.3-0.02,0.42-0.05
				c0.27,0.5,0.64,0.76,1.12,0.77c0.48,0.01,0.82-0.14,1.03-0.45c-0.2-0.06-0.29-0.19-0.29-0.4v-0.04c0.15,0.06,0.31,0.09,0.48,0.09
				c0.55,0,0.9-0.32,1.03-0.95c-0.65,0.02-0.98-0.29-0.98-0.93c0-0.42,0.16-0.75,0.48-0.99c0.32-0.25,0.82-0.37,1.49-0.37
				s1.17,0.19,1.5,0.56c0.33,0.37,0.49,0.96,0.49,1.77v1.83c-0.32,0.35-0.76,0.59-1.32,0.72c-0.3,0.07-0.65,0.13-1.04,0.16
				c-0.39,0.03-0.99,0.06-1.81,0.08c-0.81,0.02-1.56,0.21-2.23,0.58c-0.63,0.35-1.07,0.92-1.34,1.7c-0.25,0.74-0.67,1.25-1.26,1.51
				c0.3,0.15,0.55,0.31,0.76,0.49c0.2,0.18,0.35,0.45,0.43,0.79c0.15,0.57,0.42,1.09,0.81,1.55c0.9,1.08,2.26,1.62,4.06,1.62
				c1.48,0,2.59-0.49,3.33-1.46c0.09,0.46,0.33,0.82,0.71,1.07c0.17,0.11,0.36,0.2,0.56,0.25c0.2,0.05,0.44,0.08,0.71,0.08
				c0.27,0,0.58-0.13,0.93-0.39c0.4,0.26,0.83,0.39,1.29,0.39s0.81-0.11,1.04-0.32c0.23-0.21,0.35-0.43,0.35-0.67
				s-0.06-0.43-0.17-0.58C94.22,124.91,93.99,124.98,93.71,124.98z M83.41,124.74c-0.62-0.48-1.07-1.2-1.34-2.17
				c-0.05-0.18-0.33-0.39-0.85-0.62c0.54-0.24,0.82-0.45,0.85-0.62c0.13-0.59,0.33-1.08,0.61-1.45c0.15-0.21,0.4-0.39,0.73-0.55
				c0.07,0.05,0.11,0.11,0.11,0.18c0,0.07-0.05,0.2-0.16,0.38c-0.06,0.09-0.12,0.19-0.2,0.31c-0.08,0.11-0.15,0.25-0.21,0.4
				c-0.06,0.15-0.11,0.33-0.15,0.54c-0.04,0.21-0.05,0.56-0.05,1.04c0,0.48,0.2,1.09,0.61,1.84c0.11,0.22,0.17,0.39,0.17,0.51
				C83.53,124.61,83.49,124.68,83.41,124.74z M88.59,122.69c0,0.56-0.14,1.02-0.42,1.38c-0.29,0.37-0.66,0.55-1.11,0.55
				c-0.59,0-1.05-0.26-1.38-0.77c-0.15-0.24-0.26-0.53-0.33-0.85c-0.07-0.33-0.11-0.66-0.11-1c0-1.64,0.45-2.52,1.34-2.66
				c0.81-0.11,1.48-0.32,2-0.62V122.69z M90.49,120.16c-0.02,1.61-0.27,2.51-0.74,2.7v-8.13c0.14,0.07,0.28,0.2,0.44,0.4
				c0.15,0.2,0.25,0.81,0.28,1.84c0.01,0.28,0.01,0.58,0.02,0.9c0,0.31,0.01,0.69,0.01,1.13S90.49,119.82,90.49,120.16z
				 M101.42,108.45c-0.5-0.85-1.22-1.28-2.15-1.28c-0.92,0-1.63,0.42-2.14,1.27c-0.24,0.4-0.62,0.74-1.16,1.01
				c0.48,0.17,0.86,0.48,1.15,0.94c0.4,0.65,0.94,1.01,1.61,1.07c-0.04,0.34-0.13,0.66-0.27,0.96c-0.39,0.91-0.98,1.55-1.78,1.92
				c0,0.16,0.06,0.29,0.18,0.39s0.26,0.15,0.43,0.15c0.79,0,1.51-0.31,2.16-0.94c0.34-0.33,0.67-0.76,0.97-1.28
				c0.31-0.52,0.58-1.14,0.84-1.84c0.25-0.71,0.69-1.16,1.32-1.37C102.05,109.18,101.66,108.85,101.42,108.45z M97.73,109.95
				c-0.19-0.21-0.39-0.38-0.6-0.5c0.29-0.15,0.51-0.31,0.65-0.49c0.08-0.1,0.19-0.22,0.34-0.37c0.14-0.15,0.36-0.27,0.64-0.37
				c-0.09,0.14-0.15,0.33-0.2,0.59c-0.02,0.11-0.03,0.21-0.04,0.31c-0.01,0.1-0.01,0.3-0.01,0.59c0,0.3,0.09,0.61,0.26,0.93
				C98.41,110.57,98.06,110.34,97.73,109.95z M133.53,124.98c-0.72,0-1.22-0.31-1.5-0.93v-5.97c0-0.37,0.12-0.71,0.35-1
				c0.16-0.19,0.54-0.43,1.14-0.72c-0.55-0.25-0.96-0.54-1.23-0.85c-0.17-0.2-0.26-0.49-0.26-0.89v-5.22
				c0.22-0.58,0.64-0.87,1.26-0.87c0.28,0,0.5,0.07,0.68,0.21c0.09-0.12,0.13-0.26,0.13-0.43c0-0.33-0.15-0.6-0.46-0.82
				c-0.15-0.1-0.32-0.17-0.52-0.23c-0.2-0.06-0.48-0.09-0.83-0.09s-0.69,0.13-1.02,0.4c-0.37-0.27-0.8-0.4-1.3-0.4
				s-0.91,0.09-1.21,0.27c-0.25-0.18-0.5-0.27-0.74-0.27c-0.24,0-0.45,0.04-0.63,0.13c-0.18,0.09-0.37,0.35-0.57,0.8l-0.34,0.79
				l-3.86,9.51l-4.68-9.7c-0.28-0.62-0.56-1.03-0.82-1.23c-0.13-0.11-0.26-0.19-0.39-0.23c-0.13-0.04-0.32-0.06-0.56-0.06
				s-0.52,0.15-0.84,0.45c-0.25-0.3-0.56-0.45-0.92-0.45c-0.36,0-0.67,0.13-0.94,0.4c-0.3-0.27-0.68-0.4-1.15-0.4
				s-0.83,0.11-1.11,0.32c-0.13,0.11-0.23,0.23-0.31,0.37c-0.07,0.14-0.11,0.29-0.11,0.46s0.04,0.31,0.12,0.42
				c0.16-0.14,0.42-0.21,0.76-0.21c0.67,0,1.1,0.26,1.29,0.77l-0.01,5.32c0,0.38-0.12,0.73-0.37,1.04
				c-0.15,0.19-0.53,0.42-1.12,0.71c0.59,0.28,1,0.57,1.25,0.87c0.16,0.19,0.24,0.47,0.24,0.85v5.73c-0.15,0.37-0.34,0.65-0.59,0.86
				s-0.47,0.31-0.67,0.31c-0.51,0-0.89-0.07-1.12-0.21c-0.08,0.12-0.12,0.31-0.12,0.57c0,0.26,0.12,0.49,0.35,0.69
				s0.54,0.3,0.93,0.3c0.39,0,0.73-0.11,1.03-0.33c0.27,0.22,0.59,0.33,0.97,0.33s0.71-0.1,1.01-0.31c0.33,0.2,0.7,0.31,1.1,0.31
				c0.4,0,0.72-0.1,0.98-0.29c0.25-0.19,0.38-0.42,0.38-0.67s-0.04-0.46-0.13-0.6c-0.24,0.14-0.52,0.21-0.85,0.21
				c-0.33,0-0.63-0.1-0.9-0.31s-0.48-0.5-0.63-0.87v-11.94l6.52,12.85c0.08,0.04,0.22,0.06,0.43,0.06c0.07,0,0.15-0.04,0.25-0.11
				c0.1-0.07,0.28-0.39,0.53-0.96l0.52-1.2l4.76-11.79v13.34c-0.28,0.62-0.78,0.93-1.5,0.93c-0.28,0-0.5-0.07-0.68-0.21
				c-0.09,0.12-0.13,0.26-0.13,0.43c0,0.32,0.17,0.58,0.52,0.79c0.17,0.11,0.37,0.19,0.6,0.25c0.23,0.06,0.52,0.09,0.87,0.09
				s0.74-0.13,1.15-0.39c0.4,0.26,0.86,0.39,1.38,0.39c0.49,0,0.92-0.13,1.31-0.39c0.42,0.26,0.86,0.39,1.34,0.39
				c0.48,0,0.91-0.11,1.28-0.34c0.16-0.1,0.29-0.22,0.38-0.35c0.09-0.14,0.14-0.29,0.14-0.45s-0.04-0.3-0.13-0.42
				C134.04,124.91,133.81,124.98,133.53,124.98z M121.54,122.84l-4.44-8.87c-0.55-1.09-0.83-1.97-0.83-2.62
				c0-0.23,0.04-0.4,0.12-0.52l4.22,8.45c0.68,1.37,1.01,2.4,1.01,3.11C121.63,122.62,121.6,122.77,121.54,122.84z M129.53,121.26
				c-0.04,0.91-0.26,1.44-0.67,1.6v-12.02c0.14,0.07,0.29,0.2,0.45,0.4c0.16,0.2,0.25,0.78,0.27,1.74c0.01,0.33,0.01,0.75,0.02,1.29
				c0,0.53,0.01,1.61,0.01,3.22S129.58,120.35,129.53,121.26z M152.88,124.92c-0.37,0-0.73-0.19-1.09-0.56l-2.33-6.25
				c-0.07-0.15-0.1-0.33-0.1-0.54c0-0.54,0.41-0.94,1.22-1.21c-0.23-0.08-0.45-0.17-0.67-0.27c-0.78-0.35-1.27-0.84-1.46-1.46
				l-1.56-4.99c0.16-0.74,0.52-1.11,1.06-1.11c0.25,0,0.47,0.07,0.66,0.21c0.1-0.12,0.15-0.26,0.15-0.43c0-0.35-0.15-0.63-0.45-0.83
				c-0.3-0.2-0.71-0.31-1.25-0.31s-1.07,0.16-1.59,0.49c-0.36-0.33-0.84-0.49-1.45-0.49c-0.61,0-1.11,0.17-1.52,0.51
				c-0.4-0.34-0.88-0.51-1.45-0.51c-0.57,0-1.01,0.13-1.32,0.39c-0.14,0.12-0.25,0.26-0.32,0.43c-0.08,0.16-0.12,0.34-0.12,0.52
				s0.04,0.35,0.12,0.49c0.31-0.15,0.64-0.23,1-0.23c0.36,0,0.67,0.18,0.93,0.52l-1.34,4.5c-0.24,0.73-0.56,1.32-0.96,1.77
				c-0.26,0.28-0.71,0.55-1.35,0.79c0.7,0.2,1.05,0.68,1.05,1.42c0,0.21-0.04,0.44-0.11,0.7l-0.24,0.84l-1.73,5.14
				c-0.16,0.16-0.33,0.29-0.51,0.38c-0.18,0.09-0.44,0.14-0.78,0.14c-0.35,0-0.64-0.07-0.87-0.21c-0.08,0.12-0.12,0.31-0.12,0.57
				c0,0.26,0.12,0.49,0.35,0.69s0.54,0.3,0.93,0.3c0.39,0,0.73-0.11,1.03-0.33c0.27,0.22,0.59,0.33,0.97,0.33s0.71-0.1,1.01-0.31
				c0.33,0.2,0.7,0.31,1.1,0.31c0.4,0,0.72-0.1,0.98-0.29c0.25-0.19,0.38-0.42,0.38-0.67s-0.04-0.46-0.13-0.6
				c-0.24,0.14-0.59,0.21-1.07,0.21s-0.88-0.26-1.21-0.77l0.81-2.7h6.6l0.93,3.11c-0.2,0.2-0.53,0.29-1.01,0.29
				c-0.23,0-0.45-0.07-0.67-0.21c-0.09,0.06-0.13,0.2-0.13,0.43c0.02,0.38,0.19,0.68,0.51,0.89c0.33,0.21,0.74,0.31,1.23,0.31
				c0.5,0,0.93-0.13,1.29-0.4c0.38,0.27,0.84,0.4,1.37,0.4c0.53,0,1.01-0.14,1.43-0.42c0.37,0.28,0.81,0.42,1.32,0.42
				c0.5,0,0.89-0.12,1.15-0.37c0.12-0.11,0.21-0.25,0.27-0.4c0.06-0.15,0.09-0.32,0.09-0.49c0-0.18-0.04-0.3-0.13-0.37
				C153.53,124.85,153.25,124.92,152.88,124.92z M139.98,119.87l2.78-9.41l2.83,9.41H139.98z M147.92,122.86l-0.63-1.78
				c-0.24-0.68-0.94-2.83-2.12-6.46c-0.17-0.55-0.53-1.81-1.07-3.78c0.09,0.02,0.19,0.07,0.29,0.16c0.35,0.29,0.61,0.72,0.79,1.29
				l0.76,2.28c0.08,0.23,0.15,0.4,0.2,0.52s0.09,0.22,0.13,0.3c0.04,0.08,0.07,0.14,0.11,0.2c0.04,0.06,0.08,0.13,0.14,0.23
				c0.12,0.24,0.46,0.41,1.03,0.52c-0.41,0.15-0.61,0.45-0.6,0.9c0,0.28,0.16,0.95,0.49,2.03l0.46,1.43
				c0.17,0.54,0.26,1.09,0.26,1.66C148.14,122.69,148.07,122.86,147.92,122.86z M168.64,121.34c0.07-0.24,0.11-0.59,0.11-1.05
				c0-0.46-0.14-0.85-0.43-1.18c-0.14-0.16-0.29-0.28-0.46-0.37c-0.17-0.08-0.36-0.12-0.56-0.12c-0.2,0-0.39,0.08-0.58,0.23
				c0.17,0.21,0.26,0.63,0.26,1.25s-0.13,1.31-0.38,2.06c-0.57,1.69-1.85,2.54-3.85,2.54c-0.81,0-1.48-0.43-2.01-1.28v-5.33
				c0-0.37,0.12-0.71,0.35-1c0.16-0.19,0.54-0.43,1.14-0.72c-0.55-0.25-0.96-0.54-1.23-0.85c-0.17-0.2-0.26-0.49-0.26-0.89v-5.14
				c0.15-0.32,0.37-0.56,0.68-0.71s0.61-0.24,0.91-0.24c0.3,0,0.54,0.07,0.72,0.21c0.09-0.12,0.13-0.26,0.13-0.43
				c0-0.32-0.18-0.58-0.52-0.79c-0.17-0.11-0.37-0.19-0.6-0.25c-0.23-0.06-0.53-0.09-0.9-0.09c-0.37,0-0.79,0.13-1.25,0.4
				c-0.42-0.27-0.9-0.4-1.42-0.4c-0.52,0-0.99,0.13-1.42,0.4c-0.41-0.27-0.85-0.4-1.34-0.4c-0.48,0-0.91,0.11-1.29,0.34
				c-0.16,0.1-0.29,0.22-0.38,0.35c-0.09,0.14-0.14,0.29-0.14,0.45s0.04,0.3,0.13,0.42c0.18-0.14,0.41-0.21,0.68-0.21
				c0.72,0,1.22,0.31,1.5,0.94v5.15c0,0.4-0.14,0.76-0.42,1.07c-0.16,0.2-0.52,0.42-1.07,0.67c0.59,0.29,1.01,0.59,1.26,0.89
				c0.15,0.18,0.23,0.46,0.23,0.83v5.97c-0.28,0.62-0.78,0.93-1.5,0.93c-0.28,0-0.5-0.07-0.68-0.21c-0.09,0.12-0.13,0.26-0.13,0.43
				c0,0.32,0.17,0.58,0.52,0.79c0.17,0.11,0.37,0.19,0.6,0.25c0.23,0.06,0.52,0.09,0.87,0.09s0.74-0.13,1.15-0.39
				c0.42,0.26,0.89,0.39,1.43,0.39s1.02-0.14,1.44-0.43c0.62,0.28,1.48,0.43,2.58,0.43c1.1,0,2.09-0.2,2.95-0.6
				c0.45-0.2,0.8-0.31,1.05-0.31c0.34,0,0.51,0.19,0.51,0.56c0,0.18-0.02,0.36-0.05,0.54c0.18,0.09,0.37,0.13,0.59,0.13
				c0.43,0,0.8-0.16,1.11-0.48c0.14-0.15,0.25-0.33,0.32-0.53c0.08-0.2,0.12-0.44,0.12-0.71c0-0.28-0.13-0.59-0.4-0.93
				c0.32-0.35,0.48-0.81,0.48-1.37S169.01,121.65,168.64,121.34z M158.09,121.26c-0.04,0.91-0.26,1.44-0.67,1.6v-1.59
				c0-2.47-0.05-3.89-0.15-4.28c-0.07-0.24-0.34-0.45-0.83-0.62c0.44-0.14,0.72-0.37,0.83-0.7c0.1-0.39,0.15-2,0.15-4.83
				c0.14,0.07,0.29,0.2,0.45,0.4c0.16,0.2,0.25,0.78,0.27,1.74c0.01,0.33,0.01,0.75,0.02,1.29c0,0.53,0.01,1.61,0.01,3.22
				S158.14,120.35,158.09,121.26z M186.9,112.03c0.31-0.37,0.46-0.77,0.46-1.22c0-0.45-0.12-0.82-0.37-1.11
				c0.34-0.38,0.51-0.84,0.51-1.37c0-0.53-0.16-0.94-0.48-1.23c-0.15-0.14-0.32-0.24-0.51-0.32s-0.4-0.11-0.61-0.11
				c-0.21,0-0.39,0.06-0.52,0.18c0.06,0.2,0.09,0.33,0.09,0.42c0,0.33-0.11,0.49-0.34,0.49c-0.12,0-0.25-0.02-0.38-0.05l-1.09-0.29
				c-0.59-0.16-1.29-0.24-2.08-0.24c-0.5,0-0.98,0.14-1.44,0.42c-0.43-0.28-0.91-0.42-1.44-0.42c-0.53,0-1,0.14-1.42,0.42
				c-0.48-0.28-1.04-0.42-1.67-0.42s-1.43,0.13-2.38,0.38l-0.55,0.16c-0.13,0.03-0.26,0.05-0.38,0.05c-0.23,0-0.34-0.16-0.34-0.49
				c0-0.08,0.03-0.22,0.09-0.42c-0.14-0.12-0.35-0.18-0.62-0.18c-0.15,0-0.32,0.04-0.51,0.11c-0.66,0.24-0.99,0.72-0.99,1.44
				c0,0.62,0.17,1.11,0.51,1.48c-0.24,0.29-0.37,0.67-0.37,1.12s0.15,0.86,0.45,1.21c-0.18,0.34-0.27,0.76-0.27,1.25
				s0.16,0.94,0.48,1.37c0.15,0.21,0.34,0.38,0.55,0.5c0.21,0.12,0.45,0.18,0.72,0.18s0.45-0.1,0.55-0.31
				c-0.26-0.37-0.39-0.96-0.39-1.75c0-1.37,0.36-2.47,1.09-3.32c0.33-0.37,0.69-0.66,1.1-0.85c0.41-0.2,0.8-0.29,1.17-0.29
				c0.37,0,0.69,0.05,0.96,0.15v5.66c0,0.4-0.14,0.76-0.42,1.07c-0.16,0.2-0.52,0.42-1.07,0.67c0.59,0.29,1.01,0.59,1.26,0.89
				c0.15,0.18,0.23,0.46,0.23,0.83v5.94c-0.15,0.33-0.38,0.57-0.69,0.72c-0.31,0.15-0.61,0.23-0.9,0.23c-0.3,0-0.54-0.07-0.71-0.21
				c-0.09,0.12-0.13,0.26-0.13,0.43c0,0.32,0.17,0.58,0.52,0.79c0.17,0.11,0.37,0.19,0.6,0.25c0.23,0.06,0.53,0.09,0.9,0.09
				c0.37,0,0.79-0.13,1.23-0.4c0.44,0.27,0.92,0.4,1.43,0.4c0.52,0,0.99-0.13,1.41-0.4c0.46,0.27,0.93,0.4,1.43,0.4
				s0.94-0.11,1.31-0.34c0.16-0.1,0.29-0.22,0.38-0.35c0.09-0.14,0.14-0.29,0.14-0.45s-0.04-0.3-0.13-0.42
				c-0.18,0.14-0.42,0.21-0.72,0.21c-0.3,0-0.6-0.08-0.91-0.23c-0.31-0.15-0.53-0.39-0.68-0.72v-5.94c0-0.37,0.12-0.71,0.35-1
				c0.16-0.19,0.54-0.43,1.14-0.72c-0.55-0.25-0.96-0.54-1.23-0.85c-0.17-0.2-0.26-0.49-0.26-0.89v-5.66
				c0.25-0.1,0.55-0.15,0.89-0.15c0.9,0,1.67,0.38,2.33,1.15c0.33,0.38,0.59,0.85,0.79,1.41c0.2,0.56,0.3,1.21,0.3,1.97
				c0,0.75-0.13,1.32-0.39,1.69c0.1,0.2,0.28,0.31,0.56,0.31c0.5,0,0.92-0.23,1.26-0.68c0.15-0.2,0.27-0.44,0.35-0.71
				c0.08-0.27,0.12-0.57,0.12-0.9C187.18,112.7,187.09,112.36,186.9,112.03z M178.32,121.26c-0.04,0.91-0.26,1.44-0.67,1.6v-1.59
				c0-2.47-0.05-3.89-0.15-4.28c-0.07-0.24-0.34-0.45-0.83-0.62c0.44-0.14,0.72-0.37,0.83-0.7c0.1-0.39,0.15-2,0.15-4.83
				c0.14,0.07,0.29,0.2,0.45,0.4c0.16,0.2,0.25,0.78,0.27,1.74c0.01,0.33,0.01,0.75,0.02,1.29c0,0.53,0.01,1.61,0.01,3.22
				S178.37,120.35,178.32,121.26z M205.6,124.92c-0.37,0-0.73-0.19-1.09-0.56l-2.33-6.25c-0.07-0.15-0.1-0.33-0.1-0.54
				c0-0.54,0.41-0.94,1.22-1.21c-0.23-0.08-0.45-0.17-0.67-0.27c-0.78-0.35-1.27-0.84-1.46-1.46l-1.56-4.99
				c0.16-0.74,0.52-1.11,1.06-1.11c0.25,0,0.47,0.07,0.66,0.21c0.1-0.12,0.15-0.26,0.15-0.43c0-0.35-0.15-0.63-0.45-0.83
				c-0.3-0.2-0.71-0.31-1.25-0.31s-1.07,0.16-1.59,0.49c-0.36-0.33-0.84-0.49-1.45-0.49c-0.61,0-1.11,0.17-1.52,0.51
				c-0.4-0.34-0.88-0.51-1.45-0.51c-0.57,0-1.01,0.13-1.32,0.39c-0.14,0.12-0.25,0.26-0.32,0.43c-0.08,0.16-0.12,0.34-0.12,0.52
				s0.04,0.35,0.12,0.49c0.31-0.15,0.64-0.23,1-0.23c0.36,0,0.67,0.18,0.93,0.52l-1.34,4.5c-0.24,0.73-0.56,1.32-0.96,1.77
				c-0.26,0.28-0.71,0.55-1.35,0.79c0.7,0.2,1.05,0.68,1.05,1.42c0,0.21-0.04,0.44-0.11,0.7l-0.24,0.84l-1.73,5.14
				c-0.16,0.16-0.33,0.29-0.51,0.38c-0.18,0.09-0.44,0.14-0.78,0.14c-0.35,0-0.64-0.07-0.87-0.21c-0.08,0.12-0.12,0.31-0.12,0.57
				c0,0.26,0.12,0.49,0.35,0.69s0.54,0.3,0.93,0.3c0.39,0,0.73-0.11,1.03-0.33c0.27,0.22,0.59,0.33,0.97,0.33s0.71-0.1,1.01-0.31
				c0.33,0.2,0.7,0.31,1.1,0.31c0.4,0,0.72-0.1,0.98-0.29c0.25-0.19,0.38-0.42,0.38-0.67s-0.04-0.46-0.13-0.6
				c-0.24,0.14-0.59,0.21-1.07,0.21s-0.88-0.26-1.21-0.77l0.81-2.7h6.6l0.93,3.11c-0.2,0.2-0.53,0.29-1.01,0.29
				c-0.23,0-0.45-0.07-0.67-0.21c-0.09,0.06-0.13,0.2-0.13,0.43c0.02,0.38,0.19,0.68,0.51,0.89c0.33,0.21,0.74,0.31,1.23,0.31
				c0.5,0,0.93-0.13,1.29-0.4c0.38,0.27,0.84,0.4,1.37,0.4c0.53,0,1.01-0.14,1.43-0.42c0.37,0.28,0.81,0.42,1.32,0.42
				c0.5,0,0.89-0.12,1.15-0.37c0.12-0.11,0.21-0.25,0.27-0.4c0.06-0.15,0.09-0.32,0.09-0.49c0-0.18-0.04-0.3-0.13-0.37
				C206.25,124.85,205.97,124.92,205.6,124.92z M192.7,119.87l2.78-9.41l2.83,9.41H192.7z M200.65,122.86l-0.63-1.78
				c-0.24-0.68-0.94-2.83-2.12-6.46c-0.17-0.55-0.53-1.81-1.07-3.78c0.09,0.02,0.19,0.07,0.29,0.16c0.35,0.29,0.61,0.72,0.79,1.29
				l0.76,2.28c0.08,0.23,0.15,0.4,0.2,0.52s0.09,0.22,0.13,0.3c0.04,0.08,0.07,0.14,0.11,0.2c0.04,0.06,0.08,0.13,0.14,0.23
				c0.12,0.24,0.46,0.41,1.03,0.52c-0.41,0.15-0.61,0.45-0.6,0.9c0,0.28,0.16,0.95,0.49,2.03l0.46,1.43
				c0.17,0.54,0.26,1.09,0.26,1.66C200.87,122.69,200.79,122.86,200.65,122.86z"/>
		</g>
	</g>
</g>
</svg>
